<?xml version="1.0" encoding="utf-8"?>
<!-- Generator: Adobe Illustrator 22.0.1, SVG Export Plug-In . SVG Version: 6.00 Build 0)  -->
<svg version="1.1" id="Layer_1" xmlns="http://www.w3.org/2000/svg" xmlns:xlink="http://www.w3.org/1999/xlink" x="0px" y="0px"
	 viewBox="0 0 598.9 121.2" style="enable-background:new 0 0 598.9 121.2;" xml:space="preserve">
<style type="text/css">
	.st0{fill:#231F20;}
	.st1{fill:#FFFFFF;}
	.st2{fill:#1E4C9D;}
	.st3{fill:#1C4D9C;}
</style>
<g>
	<g id="XMLID_6_">
		<g>
			<path class="st0" d="M598.7,1.7l-11.8,36.4h-4.3l-1.2,3.7h-4.3l-1.2,3.7h-9.5l-2.4-7.3h-3.8l-1.2,3.7h-4.3l-1.2,3.7h-9.4
				L532.3,9.1h6.7l-1.2-3.7h6.7l-1.2-3.7h10l2.4,7.3h3.9l1.2-3.7h4.3l1.2-3.7h9.3l2.4,7.3h3.9l1.2-3.7h4.3l1.2-3.7H598.7z
				 M585.1,35.6l10.1-31.3h-4.6l-8.4,25.8l-8.4-25.8h-5.6l-8.4,25.8l-8.4-25.8h-4.6L557,35.6h5.7L571,9.9l8.3,25.7H585.1z
				 M582.2,21.8L586.7,8h-1.6l-3.7,11.3L582.2,21.8z M580,15.2l1.1-3.5h-1.6l-0.3,1L580,15.2z M579.6,39.2l0.4-1.1h-2.4L571,18.2
				l-2,6.2l4.8,14.9H579.6z M574.1,42.9l0.4-1.1H572l-4.3-13.3l-2,6.1l2.7,8.2H574.1z M559.8,21.8L564.3,8h-1.6L559,19.3L559.8,21.8
				z M557.7,15.2l1.1-3.5h-1.6l-0.3,1L557.7,15.2z M557.2,39.2l0.4-1.1h-2.4L545.3,8h-4l10.1,31.3H557.2z M551.7,42.9l0.4-1.1h-2.4
				l-9.8-30.2h-4L546,42.9H551.7z"/>
			<polygon class="st1" points="595.2,4.3 585.1,35.6 579.3,35.6 571,9.9 562.7,35.6 557,35.6 546.8,4.3 551.5,4.3 559.8,30.1 
				568.2,4.3 573.8,4.3 582.2,30.1 590.6,4.3 			"/>
			<polygon class="st2" points="586.7,8 582.2,21.8 581.4,19.3 585.1,8 			"/>
			<polygon class="st2" points="581.2,11.6 580,15.2 579.2,12.7 579.6,11.6 			"/>
			<polygon class="st2" points="579.9,38.1 579.6,39.2 573.8,39.2 569,24.4 571,18.2 577.5,38.1 			"/>
			<polygon class="st2" points="574.4,41.8 574.1,42.9 568.3,42.9 565.7,34.7 567.7,28.5 572,41.8 			"/>
			<polygon class="st2" points="564.3,8 559.8,21.8 559,19.3 562.7,8 			"/>
			<polygon class="st2" points="558.8,11.6 557.7,15.2 556.9,12.7 557.2,11.6 			"/>
			<polygon class="st2" points="557.6,38.1 557.2,39.2 551.5,39.2 541.3,8 545.3,8 555.1,38.1 			"/>
			<polygon class="st2" points="552,41.8 551.7,42.9 546,42.9 535.8,11.6 539.8,11.6 549.6,41.8 			"/>
			<path class="st0" d="M528.6,19c0,7.7-4.7,14.4-11.3,17.3c-1.6,1.5-3.5,2.8-5.5,3.7c-3.4,3.2-8,5.2-13,5.2
				c-10.4,0-18.8-8.5-18.8-18.9c0-7.7,4.7-14.4,11.3-17.3c1.6-1.5,3.5-2.8,5.5-3.7c3.4-3.2,8-5.2,13-5.2
				C520.1,0.2,528.6,8.7,528.6,19z M526,19c0-9-7.3-16.3-16.3-16.3c-9,0-16.3,7.3-16.3,16.3c0,9,7.3,16.3,16.3,16.3
				C518.7,35.3,526,28,526,19z M510.1,37.9c-0.1,0-0.3,0-0.4,0c-10.4,0-18.8-8.5-18.8-18.9c0-2.7,0.6-5.3,1.6-7.6
				c-2.8,2.9-4.5,6.9-4.5,11.3c0,9,7.3,16.3,16.3,16.3C506.3,39,508.3,38.6,510.1,37.9z M504.6,41.6c-0.1,0-0.3,0-0.4,0
				c-10.4,0-18.9-8.5-18.9-18.9c0-2.7,0.6-5.3,1.6-7.6c-2.8,2.9-4.5,6.9-4.5,11.3c0,9,7.3,16.3,16.3,16.3
				C500.8,42.7,502.8,42.3,504.6,41.6z"/>
			<path class="st1" d="M509.7,2.8c9,0,16.3,7.3,16.3,16.3c0,9-7.3,16.3-16.3,16.3c-9,0-16.3-7.3-16.3-16.3
				C493.4,10.1,500.7,2.8,509.7,2.8z M521.6,19c0-6.6-5.3-11.9-11.9-11.9c-6.6,0-11.9,5.3-11.9,11.9c0,6.6,5.3,11.9,11.9,11.9
				C516.3,31,521.6,25.6,521.6,19z"/>
			<path class="st0" d="M509.7,7.1c6.6,0,11.9,5.3,11.9,11.9c0,6.6-5.3,11.9-11.9,11.9c-6.6,0-11.9-5.3-11.9-11.9
				C497.8,12.5,503.1,7.1,509.7,7.1z M515.6,26.3c2.1-1.7,3.5-4.3,3.5-7.3c0-5.1-4.2-9.3-9.3-9.3c-1.6,0-3.1,0.4-4.5,1.1
				c6.1,0.5,10.9,5.6,10.9,11.9C516.1,24,515.9,25.2,515.6,26.3z M511.8,28.2c1.1-1.5,1.8-3.4,1.8-5.4c0-5.1-4.2-9.3-9.3-9.3
				c-0.7,0-1.4,0.1-2.1,0.2c-0.3,0.4-0.5,0.8-0.7,1.2c5.3,1.2,9.2,6,9.2,11.6c0,0.7-0.1,1.3-0.2,2C510.9,28.3,511.4,28.3,511.8,28.2
				z M507.9,28.2c0.1-0.6,0.2-1.2,0.2-1.8c0-4.5-3.2-8.3-7.5-9.2c-0.1,0.6-0.2,1.2-0.2,1.8C500.4,23.6,503.6,27.4,507.9,28.2z"/>
			<path class="st2" d="M519,19c0,2.9-1.4,5.6-3.5,7.3c0.4-1.1,0.6-2.4,0.6-3.6c0-6.2-4.8-11.3-10.9-11.9c1.3-0.7,2.9-1.1,4.5-1.1
				C514.9,9.7,519,13.9,519,19z"/>
			<path class="st2" d="M513.5,22.7c0,2-0.6,3.9-1.8,5.4c-0.4,0.1-0.9,0.2-1.3,0.2c0.1-0.6,0.2-1.3,0.2-2c0-5.6-3.9-10.4-9.2-11.6
				c0.2-0.4,0.4-0.8,0.7-1.2c0.7-0.2,1.4-0.2,2.1-0.2C509.4,13.4,513.5,17.6,513.5,22.7z"/>
			<path class="st2" d="M509.7,37.9c0.1,0,0.3,0,0.4,0c-1.8,0.7-3.8,1.1-5.9,1.1c-9,0-16.3-7.3-16.3-16.3c0-4.4,1.7-8.3,4.5-11.3
				c-1,2.3-1.6,4.9-1.6,7.6C490.9,29.4,499.3,37.9,509.7,37.9z"/>
			<path class="st2" d="M504.2,41.6c0.1,0,0.3,0,0.4,0c-1.8,0.7-3.8,1.1-5.9,1.1c-9,0-16.3-7.3-16.3-16.3c0-4.4,1.7-8.3,4.5-11.3
				c-1,2.3-1.6,4.9-1.6,7.6C485.4,33.1,493.8,41.6,504.2,41.6z"/>
			<path class="st0" d="M476.1,1.2v36.7h-5.5v3.7h-5.5v3.7h-9.5v-7.3h-4.2v3.7h-5.5v3.7h-9.5V8.6h5.5V4.9h5.5V1.2h9.5v7.3h4.2V4.9
				h5.5V1.2H476.1z M473.5,35.3V3.8h-4.4v13.6h-14.9V3.8h-4.4v31.5h4.4V21.8h14.9v13.6H473.5z M468,39v-1.1h-1.5V24.3h-9.7v1.1h6.8
				V39H468z M466.6,14.8V7.5h-2.9v7.3H466.6z M462.5,42.7v-1.1h-1.5V28h-4.2v1.1h1.3v13.6H462.5z M461.1,14.8v-3.7h-2.9v3.7H461.1z
				 M448.8,39v-1.1h-1.5V7.5h-2.9V39H448.8z M443.3,42.7v-1.1h-1.5V11.1h-2.9v31.5H443.3z"/>
			<polygon class="st1" points="473.5,3.8 473.5,35.3 469.1,35.3 469.1,21.8 454.3,21.8 454.3,35.3 449.9,35.3 449.9,3.8 454.3,3.8 
				454.3,17.4 469.1,17.4 469.1,3.8 			"/>
			<polygon class="st2" points="468,37.9 468,39 463.6,39 463.6,25.4 456.9,25.4 456.9,24.3 466.6,24.3 466.6,37.9 			"/>
			<rect x="463.6" y="7.5" class="st2" width="2.9" height="7.3"/>
			<polygon class="st2" points="462.5,41.6 462.5,42.7 458.1,42.7 458.1,29.1 456.9,29.1 456.9,28 461.1,28 461.1,41.6 			"/>
			<rect x="458.1" y="11.1" class="st2" width="2.9" height="3.7"/>
			<polygon class="st2" points="448.8,37.9 448.8,39 444.4,39 444.4,7.5 447.3,7.5 447.3,37.9 			"/>
			<polygon class="st2" points="443.3,41.6 443.3,42.7 438.9,42.7 438.9,11.1 441.8,11.1 441.8,41.6 			"/>
			<path class="st0" d="M421.3,15.2c4.8,1.3,11.5,3.6,11.3,11.7c-0.1,4.8-3.1,8.4-7.8,10c-1.3,1.6-3.2,2.9-5.5,3.7
				c-2.4,2.9-6.6,4.7-12,4.7c-4.8,0-8.6-2-12.7-4.1l-1.3-0.7l4.4-8.5l1.3,0.7c0.5,0.3,1.1,0.6,1.6,0.8l1.7-3.3
				c-4.1-1.5-8.2-4.2-8.3-10.4c0-3.1,1.1-5.7,3.1-7.8c1.3-1.3,2.9-2.3,4.8-2.9c0.2-0.3,0.4-0.5,0.7-0.7c1.3-1.3,2.9-2.3,4.8-2.9
				c0.2-0.3,0.4-0.5,0.7-0.7c2.4-2.4,5.9-3.7,10-3.7c5.1,0,8.2,1.6,10.2,2.6l0,0c0.2,0.1,0.4,0.2,0.7,0.3l1.2,0.6l-4.1,8.6l-1.2-0.6
				c-0.3-0.1-0.6-0.3-1-0.5c-0.3-0.1-0.6-0.3-0.9-0.5L421.3,15.2z M430,26.8c0.2-6.2-4.9-8-10.6-9.4c-4.7-1.2-7.4-2-7.4-5
				c0-1.2,0.4-2.1,1.1-2.9c1.1-1.1,2.9-1.7,5.1-1.7c3.2,0,5.2,0.9,6.8,1.7l1.9-4c-1.8-0.9-4.5-2.1-8.7-2.1c-3.4,0-6.3,1.1-8.2,3
				c-1.6,1.6-2.4,3.6-2.4,6c0,6.6,6.2,8.1,10.8,9.2c5.1,1.3,7.4,2.1,7.3,5c-0.1,2.7-2.8,4.3-7.3,4.3c-2.8,0-5.5-1.3-8.5-2.8l-2,3.9
				c3.4,1.8,6.7,3.3,10.5,3.3C425.3,35.3,429.9,32,430,26.8z M423.1,26.6c0-0.6,0-1.1-5.4-2.4C412.9,23,405,21,405,12.4
				c0-1.1,0.1-2.2,0.4-3.2c-0.3,0.3-0.7,0.5-1,0.8c-1.6,1.6-2.4,3.6-2.4,6c0,6.6,6.2,8.1,10.8,9.2c3.7,0.9,5.9,1.6,6.8,3
				C421.2,28.1,423,27.7,423.1,26.6z M419.4,13.2l1.2-2.6c-0.7-0.2-1.5-0.3-2.5-0.3c-1.7,0-2.8,0.5-3.2,0.9
				c-0.1,0.1-0.2,0.2-0.2,0.3C416.7,11.9,418.2,12.6,419.4,13.2z M419,37.9c-0.2,0-0.5,0-0.7,0c-4.8,0-8.6-2-12.7-4.1l-1.3-0.7
				l0.5-1.1c-0.2-0.1-0.4-0.2-0.6-0.3l-2,3.9c3.4,1.8,6.7,3.3,10.5,3.3C415.2,39,417.3,38.6,419,37.9z M413.5,41.6
				c-0.2,0-0.5,0-0.7,0c-4.8,0-8.6-2-12.7-4.1l-1.3-0.7l0.6-1.1c-0.2-0.1-0.4-0.2-0.6-0.3l-2,3.9c3.4,1.8,6.7,3.3,10.5,3.3
				C409.7,42.7,411.8,42.3,413.5,41.6z M406.6,28.8l1.2-2.3c-4.1-1.5-8.2-4.2-8.3-10.4c0-1.1,0.1-2.2,0.4-3.2
				c-0.3,0.3-0.7,0.5-1,0.8c-1.6,1.6-2.4,3.6-2.4,6C396.6,26,402.1,27.7,406.6,28.8z"/>
			<path class="st1" d="M419.4,17.4c5.7,1.4,10.8,3.2,10.6,9.4c-0.1,5.2-4.7,8.5-11.7,8.5c-3.8,0-7.1-1.5-10.5-3.3l2-3.9
				c3,1.5,5.7,2.8,8.5,2.8c4.5,0,7.2-1.6,7.3-4.3c0.1-2.9-2.2-3.7-7.3-5c-4.5-1.1-10.8-2.6-10.8-9.2c0-2.3,0.8-4.4,2.4-6
				c1.9-1.9,4.8-3,8.2-3c4.2,0,6.8,1.2,8.7,2.1l-1.9,4c-1.6-0.8-3.5-1.7-6.8-1.7c-2.2,0-4,0.6-5.1,1.7c-0.7,0.7-1.1,1.7-1.1,2.9
				C412,15.4,414.6,16.2,419.4,17.4z"/>
			<path class="st2" d="M417.7,24.1c5.4,1.3,5.4,1.8,5.4,2.4c0,1.1-1.9,1.6-3.5,1.7c-0.9-1.4-3.1-2.1-6.8-3
				c-4.5-1.1-10.7-2.6-10.8-9.2c0-2.4,0.8-4.4,2.4-6c0.3-0.3,0.6-0.6,1-0.8c-0.3,1-0.4,2.1-0.4,3.2C405,21,412.9,23,417.7,24.1z"/>
			<path class="st2" d="M420.6,10.7l-1.2,2.6c-1.2-0.6-2.6-1.3-4.7-1.6c0.1-0.1,0.1-0.2,0.2-0.3c0.4-0.4,1.5-0.9,3.2-0.9
				C419.1,10.4,419.9,10.5,420.6,10.7z"/>
			<path class="st2" d="M407.7,26.5l-1.2,2.3c-4.4-1.1-10-2.8-10-9.1c0-2.4,0.8-4.4,2.4-6c0.3-0.3,0.6-0.6,1-0.8
				c-0.3,1-0.4,2.1-0.4,3.2C399.5,22.3,403.6,25,407.7,26.5z"/>
			<path class="st2" d="M404.3,33.1l1.3,0.7c4.1,2.1,7.9,4.1,12.7,4.1c0.2,0,0.5,0,0.7,0c-1.7,0.7-3.8,1.1-6.2,1.1
				c-3.8,0-7.1-1.5-10.5-3.3l2-3.9c0.2,0.1,0.4,0.2,0.6,0.3L404.3,33.1z"/>
			<path class="st2" d="M407.3,42.7c-3.8,0-7.1-1.5-10.5-3.3l2-3.9c0.2,0.1,0.4,0.2,0.6,0.3l-0.6,1.1l1.3,0.7
				c4.1,2.1,7.9,4.1,12.7,4.1c0.2,0,0.5,0,0.7,0C411.8,42.3,409.7,42.7,407.3,42.7z"/>
			<path class="st0" d="M389.6,19c0,7.7-4.7,14.4-11.3,17.3c-1.6,1.5-3.5,2.8-5.5,3.7c-3.4,3.2-8,5.2-13,5.2
				c-10.4,0-18.8-8.5-18.8-18.9c0-7.7,4.7-14.4,11.3-17.3c1.6-1.5,3.5-2.8,5.5-3.7c3.4-3.2,8-5.2,13-5.2
				C381.1,0.2,389.6,8.7,389.6,19z M387,19c0-9-7.3-16.3-16.3-16.3c-9,0-16.3,7.3-16.3,16.3c0,9,7.3,16.3,16.3,16.3
				C379.7,35.3,387,28,387,19z M371.1,37.9c-0.1,0-0.3,0-0.4,0c-10.4,0-18.9-8.5-18.9-18.9c0-2.7,0.6-5.3,1.6-7.6
				c-2.8,2.9-4.5,6.9-4.5,11.3c0,9,7.3,16.3,16.3,16.3C367.3,39,369.3,38.6,371.1,37.9z M365.6,41.6c-0.1,0-0.3,0-0.4,0
				c-10.4,0-18.9-8.5-18.9-18.9c0-2.7,0.6-5.3,1.6-7.6c-2.8,2.9-4.5,6.9-4.5,11.3c0,9,7.3,16.3,16.3,16.3
				C361.8,42.7,363.8,42.3,365.6,41.6z"/>
			<path class="st1" d="M370.7,2.8c9,0,16.3,7.3,16.3,16.3c0,9-7.3,16.3-16.3,16.3c-9,0-16.3-7.3-16.3-16.3
				C354.4,10.1,361.7,2.8,370.7,2.8z M382.6,19c0-6.6-5.3-11.9-11.9-11.9c-6.6,0-11.9,5.3-11.9,11.9c0,6.6,5.3,11.9,11.9,11.9
				C377.3,31,382.6,25.6,382.6,19z"/>
			<path class="st0" d="M370.7,7.1c6.6,0,11.9,5.3,11.9,11.9c0,6.6-5.3,11.9-11.9,11.9c-6.6,0-11.9-5.3-11.9-11.9
				C358.8,12.5,364.1,7.1,370.7,7.1z M376.5,26.3c2.1-1.7,3.5-4.3,3.5-7.3c0-5.1-4.2-9.3-9.3-9.3c-1.6,0-3.2,0.4-4.5,1.1
				c6.1,0.5,10.9,5.6,10.9,11.9C377.1,24,376.9,25.2,376.5,26.3z M372.8,28.2c1.1-1.5,1.8-3.4,1.8-5.4c0-5.1-4.2-9.3-9.3-9.3
				c-0.7,0-1.4,0.1-2.1,0.2c-0.3,0.4-0.5,0.8-0.7,1.2c5.3,1.2,9.2,6,9.2,11.6c0,0.7-0.1,1.3-0.2,2C371.9,28.3,372.4,28.3,372.8,28.2
				z M368.9,28.2c0.1-0.6,0.2-1.2,0.2-1.8c0-4.5-3.2-8.3-7.5-9.2c-0.1,0.6-0.2,1.2-0.2,1.8C361.4,23.6,364.6,27.4,368.9,28.2z"/>
			<path class="st2" d="M380,19c0,2.9-1.4,5.6-3.5,7.3c0.4-1.1,0.6-2.4,0.6-3.6c0-6.2-4.8-11.3-10.9-11.9c1.3-0.7,2.9-1.1,4.5-1.1
				C375.9,9.7,380,13.9,380,19z"/>
			<path class="st2" d="M374.5,22.7c0,2-0.7,3.9-1.8,5.4c-0.4,0.1-0.9,0.2-1.4,0.2c0.1-0.6,0.2-1.3,0.2-2c0-5.6-3.9-10.4-9.2-11.6
				c0.2-0.4,0.4-0.8,0.7-1.2c0.7-0.2,1.4-0.2,2.1-0.2C370.4,13.4,374.5,17.6,374.5,22.7z"/>
			<path class="st2" d="M370.7,37.9c0.1,0,0.3,0,0.4,0c-1.8,0.7-3.8,1.1-5.9,1.1c-9,0-16.3-7.3-16.3-16.3c0-4.4,1.7-8.3,4.5-11.3
				c-1,2.3-1.6,4.9-1.6,7.6C351.9,29.4,360.3,37.9,370.7,37.9z"/>
			<path class="st2" d="M365.2,41.6c0.1,0,0.3,0,0.4,0c-1.8,0.7-3.8,1.1-5.9,1.1c-9,0-16.3-7.3-16.3-16.3c0-4.4,1.7-8.3,4.5-11.3
				c-1,2.3-1.6,4.9-1.6,7.6C346.3,33.1,354.8,41.6,365.2,41.6z"/>
			<path class="st0" d="M337.1,1.2v36.7h-5.5v3.7h-5.5v3.7h-9.5V8.6h5.5V4.9h5.5V1.2H337.1z M334.5,35.3V3.8h-4.4v31.5H334.5z
				 M329,39v-1.1h-1.5V7.5h-2.9V39H329z M323.5,42.7v-1.1h-1.5V11.1h-2.9v31.5H323.5z"/>
			<rect x="330.1" y="3.8" class="st1" width="4.4" height="31.5"/>
			<polygon class="st2" points="329,37.9 329,39 324.6,39 324.6,7.5 327.6,7.5 327.6,37.9 			"/>
			<polygon class="st2" points="323.5,41.6 323.5,42.7 319.1,42.7 319.1,11.1 322.1,11.1 322.1,41.6 			"/>
			<path class="st0" d="M312.8,28.4v9.5h-5.5v3.7h-5.5v3.7h-25.1l0-36.8h5.5V4.8h5.5l0-3.7h9.5v27.2H312.8z M310.2,35.3v-4.4h-15.6
				V3.7h-4.4v31.6H310.2z M304.7,39v-1.1h-17l0-30.5h-2.9V39H304.7z M299.2,42.7v-1.1h-17l0-30.5h-2.9v31.6H299.2z"/>
			<polygon class="st1" points="310.2,30.9 310.2,35.3 290.3,35.3 290.3,3.7 294.7,3.7 294.7,30.9 			"/>
			<polygon class="st2" points="287.7,37.9 304.7,37.9 304.7,39 284.8,39 284.8,7.4 287.7,7.4 			"/>
			<polygon class="st2" points="299.2,42.7 279.3,42.7 279.3,11 282.2,11 282.2,41.6 299.2,41.6 			"/>
			<path class="st0" d="M272.9,19c0,7.7-4.7,14.4-11.3,17.3c-1.6,1.5-3.4,2.8-5.5,3.7c-3.4,3.2-8,5.2-13,5.2
				c-10.4,0-18.9-8.5-18.9-18.9c0-7.7,4.7-14.4,11.3-17.3c1.6-1.5,3.5-2.8,5.5-3.7c3.4-3.2,8-5.2,13-5.2
				C264.5,0.2,272.9,8.7,272.9,19z M270.4,19c0-9-7.3-16.3-16.3-16.3s-16.3,7.3-16.3,16.3c0,9,7.3,16.3,16.3,16.3S270.4,28,270.4,19
				z M254.5,37.9c-0.1,0-0.3,0-0.4,0c-10.4,0-18.9-8.5-18.9-18.9c0-2.7,0.6-5.3,1.6-7.6c-2.8,2.9-4.5,6.9-4.5,11.3
				c0,9,7.3,16.3,16.3,16.3C250.7,39,252.7,38.6,254.5,37.9z M249,41.6c-0.1,0-0.3,0-0.4,0c-10.4,0-18.9-8.5-18.9-18.9
				c0-2.7,0.6-5.3,1.6-7.6c-2.8,2.9-4.5,6.9-4.5,11.3c0,9,7.3,16.3,16.3,16.3C245.2,42.7,247.2,42.3,249,41.6z"/>
			<path class="st1" d="M254.1,2.8c9,0,16.3,7.3,16.3,16.3c0,9-7.3,16.3-16.3,16.3S237.8,28,237.8,19
				C237.8,10.1,245.1,2.8,254.1,2.8z M266,19c0-6.6-5.3-11.9-11.9-11.9c-6.6,0-11.9,5.3-11.9,11.9c0,6.6,5.3,11.9,11.9,11.9
				C260.7,31,266,25.6,266,19z"/>
			<path class="st0" d="M254.1,7.1c6.6,0,11.9,5.3,11.9,11.9c0,6.6-5.3,11.9-11.9,11.9c-6.6,0-11.9-5.3-11.9-11.9
				C242.2,12.5,247.5,7.1,254.1,7.1z M259.9,26.3c2.1-1.7,3.5-4.3,3.5-7.3c0-5.1-4.2-9.3-9.3-9.3c-1.6,0-3.2,0.4-4.5,1.1
				c6.1,0.5,10.9,5.6,10.9,11.9C260.5,24,260.3,25.2,259.9,26.3z M256.2,28.2c1.1-1.5,1.8-3.4,1.8-5.4c0-5.1-4.2-9.3-9.3-9.3
				c-0.7,0-1.4,0.1-2.1,0.2c-0.3,0.4-0.5,0.8-0.7,1.2c5.3,1.2,9.2,6,9.2,11.6c0,0.7-0.1,1.3-0.2,2C255.3,28.3,255.7,28.3,256.2,28.2
				z M252.3,28.2c0.1-0.6,0.2-1.2,0.2-1.8c0-4.5-3.2-8.3-7.5-9.2c-0.1,0.6-0.2,1.2-0.2,1.8C244.7,23.6,248,27.4,252.3,28.2z"/>
			<path class="st2" d="M263.4,19c0,2.9-1.4,5.6-3.5,7.3c0.4-1.1,0.6-2.4,0.6-3.6c0-6.2-4.8-11.3-10.9-11.9c1.3-0.7,2.9-1.1,4.5-1.1
				C259.2,9.7,263.4,13.9,263.4,19z"/>
			<path class="st2" d="M257.9,22.7c0,2-0.7,3.9-1.8,5.4c-0.4,0.1-0.9,0.2-1.4,0.2c0.1-0.6,0.2-1.3,0.2-2c0-5.6-3.9-10.4-9.2-11.6
				c0.2-0.4,0.4-0.8,0.7-1.2c0.7-0.2,1.4-0.2,2.1-0.2C253.7,13.4,257.9,17.6,257.9,22.7z"/>
			<path class="st2" d="M254.1,37.9c0.1,0,0.3,0,0.4,0c-1.8,0.7-3.8,1.1-5.9,1.1c-9,0-16.3-7.3-16.3-16.3c0-4.4,1.7-8.3,4.5-11.3
				c-1,2.3-1.6,4.9-1.6,7.6C235.2,29.4,243.7,37.9,254.1,37.9z"/>
			<path class="st2" d="M248.6,41.6c0.1,0,0.3,0,0.4,0c-1.8,0.7-3.8,1.1-5.9,1.1c-9,0-16.3-7.3-16.3-16.3c0-4.4,1.7-8.3,4.5-11.3
				c-1,2.3-1.6,4.9-1.6,7.6C229.7,33.1,238.2,41.6,248.6,41.6z"/>
			<path class="st0" d="M220.5,1.3v9.5H215v3.7h-5.5v0.3h6.7v9.5h-5.5V28h-5.4v9.9h-5.5v3.7h-5.5v3.7h-9.5V8.6h5.5V4.9h5.5V1.2h9.5
				v0H220.5z M217.9,8.2V3.8h-15.2v0h-4.4v31.5h4.4V21.8h10.9v-4.4h-10.9V8.2H217.9z M212.4,11.9v-1.1h-7.2v1.1H212.4z M208.1,25.4
				v-1.1h-2.8v1.1H208.1z M206.9,14.8v-0.3h-1.7v0.3H206.9z M197.2,39v-1.1h-1.5V7.5h-2.9V39H197.2z M191.7,42.7v-1.1h-1.5V11.1
				h-2.9v31.5H191.7z"/>
			<polygon class="st1" points="217.9,3.8 217.9,8.2 202.7,8.2 202.7,17.4 213.6,17.4 213.6,21.8 202.7,21.8 202.7,35.3 198.3,35.3 
				198.3,3.8 202.7,3.8 202.7,3.8 			"/>
			<rect x="205.3" y="10.8" class="st2" width="7.2" height="1.1"/>
			<rect x="205.3" y="24.3" class="st2" width="2.8" height="1.1"/>
			<polygon class="st2" points="197.2,37.9 197.2,39 192.8,39 192.8,7.5 195.7,7.5 195.7,37.9 			"/>
			<polygon class="st2" points="191.7,41.6 191.7,42.7 187.3,42.7 187.3,11.1 190.2,11.1 190.2,41.6 			"/>
			<path class="st0" d="M181,1.5V11h-5.5v3.7h-4.3v23.4h-5.5v3.7h-5.5v3.7h-9.5V18.4h-9.8V8.8h5.5V5.2h5.5V1.5h9.8l1.3,0h8.3v0H181z
				 M178.4,8.5V4.1h-9.8v0h-4.4l-1.3,0h-8.5v4.4h9.8v27.1h4.4V8.5H178.4z M172.9,12.1V11h-1.8v1.1H172.9z M163.1,39.2v-1.1h-1.5V11
				h-9.8V7.7h-2.9v4.4h9.8v27.1H163.1z M157.6,42.9v-1.1h-1.5V14.7h-9.8v-3.3h-2.9v4.4h9.8v27.1H157.6z"/>
			<polygon class="st1" points="178.4,4.1 178.4,8.5 168.6,8.5 168.6,35.6 164.2,35.6 164.2,8.5 154.3,8.5 154.3,4.1 162.9,4.1 
				164.2,4 168.6,4 168.6,4.1 			"/>
			<rect x="171.1" y="11" class="st2" width="1.8" height="1.1"/>
			<polygon class="st2" points="151.8,11 161.6,11 161.6,38.1 163.1,38.1 163.1,39.2 158.7,39.2 158.7,12.1 148.8,12.1 148.8,7.7 
				151.8,7.7 			"/>
			<polygon class="st2" points="146.3,14.7 156.1,14.7 156.1,41.8 157.6,41.8 157.6,42.9 153.2,42.9 153.2,15.8 143.3,15.8 
				143.3,11.4 146.3,11.4 			"/>
			<path class="st0" d="M129.5,24.4l7.5,13.3h-7.6l2.1,3.7h-7.6l2.1,3.7h-11l-3.6-6.5v3h-5.5v3.7h-9.5V8.6h5.5V4.9h5.5V1.2h5.6
				c3.4-0.1,6.8-0.2,10.3,0.1c2.4,0.3,7.9,0.9,11.1,6c2.8,4.4,2.4,10.4-1,14.2C132.3,22.8,131,23.7,129.5,24.4z M132.6,35.2
				l-6.8-12.1l1.4-0.5c1.7-0.6,3.1-1.5,4.2-2.7c2.6-3,2.9-7.7,0.7-11.2c-2.6-4.1-7.1-4.6-9.3-4.8c-3.3-0.4-6.6-0.3-9.9-0.1h-0.1h-3
				v31.5h4.4V23.4l1.5,0c1.3,0,2.7,0.1,4.1,0l1.1,0l6.6,11.7H132.6z M127.1,38.9l-0.6-1.1H126l-6.5-11.7c-0.9,0-1.8,0-2.6,0v3.6
				l5.2,9.2H127.1z M121.6,42.5l-0.6-1.1h-0.5l-3.7-6.5v3h-2.9l2.6,4.6H121.6z M108.8,39v-1.1h-1.5V7.5h-2.9V39H108.8z M103.3,42.7
				v-1.1h-1.5V11.1h-2.9v31.5H103.3z"/>
			<path class="st1" d="M125.8,23.1l6.8,12.1h-5.1l-6.6-11.7l-1.1,0c-1.4,0-2.9,0-4.1,0l-1.5,0v11.9h-4.4V3.8h3h0.1
				c3.3-0.1,6.6-0.2,9.9,0.1c2.2,0.2,6.7,0.7,9.3,4.8c2.2,3.5,1.9,8.2-0.7,11.2c-1.1,1.2-2.5,2.1-4.2,2.7L125.8,23.1z M128.1,17
				c1.3-1.5,1.5-4.1,0.3-5.9c-1.2-1.9-3.3-2.5-6-2.8c-2.5-0.3-5-0.3-6.9-0.2l-1.3,0V19l1.3,0l0.3,0c1.2,0,2.4,0,3.6,0
				c1.1,0,2.2,0,3.2-0.1C124.4,18.9,126.7,18.5,128.1,17z"/>
			<path class="st0" d="M128.4,11.1c1.1,1.8,1,4.4-0.3,5.9c-1.4,1.5-3.7,2-5.5,2.1c-1.1,0.1-2.1,0.1-3.2,0.1c-1.2,0-2.3,0-3.6,0
				l-0.3,0l-1.3,0V8.1l1.3,0c1.9-0.1,4.4-0.1,6.9,0.2C125.2,8.6,127.2,9.2,128.4,11.1z M126.2,15.3c0.6-0.6,0.6-2,0.1-2.8
				c-0.5-0.8-1.3-1.3-4.1-1.6c-1.8-0.2-3.7-0.2-5.3-0.2V12c0,0,0,0,0.1,0c2.8,0.3,4.8,0.9,6,2.8c0.3,0.5,0.5,1,0.6,1.6
				C124.8,16.2,125.7,15.8,126.2,15.3z M120.9,16.5c-0.1-0.1-0.1-0.3-0.2-0.4c-0.5-0.7-1.3-1.3-3.9-1.6v2
				C118.2,16.6,119.6,16.6,120.9,16.5z"/>
			<path class="st2" d="M126,37.7h0.5l0.6,1.1H122l-5.2-9.2v-3.6c0.8,0,1.7,0,2.6,0L126,37.7z"/>
			<polygon class="st2" points="121.6,42.5 116.5,42.5 113.9,37.9 116.8,37.9 116.8,34.9 120.5,41.4 121,41.4 			"/>
			<path class="st2" d="M116.8,10.7c1.6,0,3.5,0,5.3,0.2c2.8,0.3,3.7,0.8,4.1,1.6c0.5,0.8,0.5,2.2-0.1,2.8c-0.5,0.5-1.4,0.9-2.6,1.1
				c-0.1-0.6-0.3-1.1-0.6-1.6c-1.2-1.9-3.3-2.5-6-2.8c0,0,0,0-0.1,0V10.7z"/>
			<polygon class="st2" points="108.8,37.9 108.8,39 104.4,39 104.4,7.5 107.3,7.5 107.3,37.9 			"/>
			<polygon class="st2" points="103.3,41.6 103.3,42.7 98.9,42.7 98.9,11.1 101.8,11.1 101.8,41.6 			"/>
			<path class="st0" d="M92.5,19c0,7.7-4.7,14.4-11.3,17.3c-1.6,1.5-3.5,2.8-5.5,3.7c-3.4,3.2-8,5.2-13,5.2
				c-10.4,0-18.9-8.5-18.9-18.9c0-7.7,4.7-14.4,11.3-17.3c1.6-1.5,3.5-2.8,5.5-3.7c3.4-3.2,8-5.2,13-5.2C84.1,0.2,92.5,8.7,92.5,19z
				 M90,19c0-9-7.3-16.3-16.3-16.3S57.4,10.1,57.4,19c0,9,7.3,16.3,16.3,16.3S90,28,90,19z M74.1,37.9c-0.1,0-0.3,0-0.4,0
				c-10.4,0-18.9-8.5-18.9-18.9c0-2.7,0.6-5.3,1.6-7.6c-2.8,2.9-4.5,6.9-4.5,11.3c0,9,7.3,16.3,16.3,16.3
				C70.3,39,72.3,38.6,74.1,37.9z M68.6,41.6c-0.1,0-0.3,0-0.4,0c-10.4,0-18.9-8.5-18.9-18.9c0-2.7,0.6-5.3,1.6-7.6
				c-2.8,2.9-4.5,6.9-4.5,11.3c0,9,7.3,16.3,16.3,16.3C64.8,42.7,66.8,42.3,68.6,41.6z"/>
			<path class="st1" d="M73.7,2.8c9,0,16.3,7.3,16.3,16.3c0,9-7.3,16.3-16.3,16.3S57.4,28,57.4,19C57.4,10.1,64.7,2.8,73.7,2.8z
				 M85.6,19c0-6.6-5.3-11.9-11.9-11.9c-6.6,0-11.9,5.3-11.9,11.9c0,6.6,5.3,11.9,11.9,11.9S85.6,25.6,85.6,19z"/>
			<path class="st0" d="M73.7,7.1c6.6,0,11.9,5.3,11.9,11.9c0,6.6-5.3,11.9-11.9,11.9S61.8,25.6,61.8,19
				C61.8,12.5,67.1,7.1,73.7,7.1z M79.5,26.3C81.7,24.6,83,22,83,19c0-5.1-4.2-9.3-9.3-9.3c-1.6,0-3.2,0.4-4.5,1.1
				c6.1,0.5,10.9,5.6,10.9,11.9C80.1,24,79.9,25.2,79.5,26.3z M75.8,28.2c1.1-1.5,1.8-3.4,1.8-5.4c0-5.1-4.2-9.3-9.3-9.3
				c-0.7,0-1.4,0.1-2.1,0.2c-0.3,0.4-0.5,0.8-0.7,1.2c5.3,1.2,9.2,6,9.2,11.6c0,0.7-0.1,1.3-0.2,2C74.9,28.3,75.4,28.3,75.8,28.2z
				 M71.9,28.2C72,27.6,72,27,72,26.4c0-4.5-3.2-8.3-7.5-9.2c-0.1,0.6-0.2,1.2-0.2,1.8C64.4,23.6,67.6,27.4,71.9,28.2z"/>
			<path class="st2" d="M83,19c0,2.9-1.4,5.6-3.5,7.3c0.4-1.1,0.6-2.4,0.6-3.6c0-6.2-4.8-11.3-10.9-11.9c1.3-0.7,2.9-1.1,4.5-1.1
				C78.9,9.7,83,13.9,83,19z"/>
			<path class="st2" d="M77.5,22.7c0,2-0.7,3.9-1.8,5.4c-0.4,0.1-0.9,0.2-1.4,0.2c0.1-0.6,0.2-1.3,0.2-2c0-5.6-3.9-10.4-9.2-11.6
				c0.2-0.4,0.4-0.8,0.7-1.2c0.7-0.2,1.4-0.2,2.1-0.2C73.4,13.4,77.5,17.6,77.5,22.7z"/>
			<path class="st2" d="M73.7,37.9c0.1,0,0.3,0,0.4,0c-1.8,0.7-3.8,1.1-5.9,1.1c-9,0-16.3-7.3-16.3-16.3c0-4.4,1.7-8.3,4.5-11.3
				c-1,2.3-1.6,4.9-1.6,7.6C54.8,29.4,63.3,37.9,73.7,37.9z"/>
			<path class="st2" d="M68.2,41.6c0.1,0,0.3,0,0.4,0c-1.8,0.7-3.8,1.1-5.9,1.1c-9,0-16.3-7.3-16.3-16.3c0-4.4,1.7-8.3,4.5-11.3
				c-1,2.3-1.6,4.9-1.6,7.6C49.3,33.1,57.8,41.6,68.2,41.6z"/>
			<path class="st0" d="M38.2,7.4c2.8,4.4,2.4,10.4-1,14.2c-1.4,1.6-3.2,2.7-5.3,3.5c-0.1,0.1-0.1,0.1-0.2,0.2
				c-1.4,1.5-3.2,2.7-5.3,3.5c-0.1,0.1-0.1,0.1-0.2,0.2c-1.4,1.6-3.3,2.8-5.5,3.5v5.5h-5.5v3.7H9.7v3.7H0.2V8.6h5.5V4.9h5.5V1.2h5.6
				c3.4-0.1,6.8-0.2,10.3,0.1C29.4,1.7,35,2.3,38.2,7.4z M35.3,19.9c2.6-3,2.9-7.7,0.7-11.2c-2.6-4.1-7.1-4.6-9.3-4.8
				c-3.3-0.4-6.6-0.3-9.9-0.1h-0.1h-3v31.5h4.4V23.4l1.5,0c1.1,0,2.4,0.1,3.6,0.1c1.3,0,2.5,0,3.5-0.1C30.5,23.2,33.4,22,35.3,19.9z
				 M26.2,26c-0.9,0-1.9,0.1-3,0.1c-0.9,0-1.7,0-2.5,0v1.1c0.2,0,0.4,0,0.5,0C23.1,27,24.8,26.6,26.2,26z M20.7,29.7
				C20.7,29.7,20.7,29.7,20.7,29.7C20.7,29.7,20.7,29.7,20.7,29.7L20.7,29.7z M12.7,39v-1.1h-1.5V7.5H8.3V39H12.7z M7.2,42.7v-1.1
				H5.7V11.1H2.8v31.5H7.2z"/>
			<path class="st1" d="M36,8.7c2.2,3.5,1.9,8.2-0.7,11.2c-1.9,2.1-4.8,3.3-8.5,3.5c-1,0.1-2.2,0.1-3.5,0.1c-1.2,0-2.5,0-3.6-0.1
				l-1.5,0v11.9h-4.4V3.8h3h0.1c3.3-0.1,6.6-0.2,9.9,0.1C28.9,4.2,33.5,4.7,36,8.7z M32,17c1.3-1.5,1.5-4.1,0.3-5.9
				c-1.2-1.9-3.3-2.5-6-2.8c-2.5-0.3-5-0.3-6.9-0.2l-1.3,0V19l1.6,0c1.2,0,2.4,0,3.6,0c1.1,0,2.2,0,3.2-0.1
				C28.3,18.9,30.6,18.5,32,17z"/>
			<path class="st0" d="M32.3,11.1c1.1,1.8,1,4.4-0.3,5.9c-1.4,1.5-3.7,2-5.5,2.1c-1.1,0.1-2.1,0.1-3.2,0.1c-1.2,0-2.3,0-3.6,0
				l-1.6,0V8.1l1.3,0c1.9-0.1,4.4-0.1,6.9,0.2C29,8.6,31.1,9.2,32.3,11.1z M30.1,15.3c0.6-0.6,0.6-2,0-2.8c-0.5-0.8-1.3-1.3-4.1-1.6
				c-1.8-0.2-3.7-0.2-5.3-0.2V12c0,0,0,0,0.1,0c2.8,0.3,4.8,0.9,6,2.8c0.3,0.5,0.5,1,0.6,1.6C28.7,16.2,29.6,15.8,30.1,15.3z
				 M24.8,16.5c-0.1-0.1-0.1-0.3-0.2-0.4c-0.5-0.7-1.3-1.3-3.9-1.6v2C22.1,16.6,23.5,16.6,24.8,16.5z"/>
			<path class="st2" d="M23.3,26.1c1.1,0,2.1,0,3-0.1c-1.4,0.6-3.1,1-5,1.1c-0.2,0-0.4,0-0.5,0v-1.1C21.6,26.1,22.4,26.1,23.3,26.1z
				"/>
			<path class="st2" d="M20.7,10.7c1.6,0,3.5,0,5.3,0.2c2.8,0.3,3.7,0.8,4.1,1.6c0.5,0.8,0.5,2.2,0,2.8c-0.5,0.5-1.4,0.9-2.6,1.1
				c-0.1-0.6-0.3-1.1-0.6-1.6c-1.2-1.9-3.3-2.5-6-2.8c0,0,0,0-0.1,0V10.7z"/>
			<polygon class="st2" points="12.7,37.9 12.7,39 8.3,39 8.3,7.5 11.2,7.5 11.2,37.9 			"/>
			<polygon class="st2" points="7.2,41.6 7.2,42.7 2.8,42.7 2.8,11.1 5.7,11.1 5.7,41.6 			"/>
		</g>
		<g>
		</g>
	</g>
</g>
<g>
	<g id="XMLID_5_">
		<g>
			<path class="st1" d="M366.3,94.1c1.8,1.5,2.7,3.6,2.7,6c0,2.5-1.1,4.7-3.1,6.2c-1.7,1.3-3.9,2-6.3,2c-2.4,0-4.6-0.7-6.3-2
				c-2-1.5-3.1-3.7-3.1-6.2c0-2.4,1-4.5,2.7-6l0.8-0.7l-0.7-0.8c-1.1-1.2-1.7-2.8-1.7-4.6c0-2.2,1-4.2,2.7-5.5
				c1.5-1.1,3.4-1.7,5.5-1.7c2.1,0,4,0.6,5.5,1.7c1.7,1.3,2.7,3.3,2.7,5.5c0,1.7-0.6,3.3-1.7,4.6l-0.7,0.8L366.3,94.1z M365.5,100
				c0-3.2-3-4.6-5.8-4.6c-2.8,0-5.8,1.5-5.8,4.6c0,3.2,3,4.6,5.8,4.6C362.5,104.7,365.5,103.2,365.5,100z M364.4,88
				c0-2.5-2.3-3.7-4.6-3.7s-4.6,1.1-4.6,3.7s2.3,3.7,4.6,3.7S364.4,90.5,364.4,88z"/>
			<path class="st0" d="M359.7,95.4c2.8,0,5.8,1.5,5.8,4.6c0,3.2-3,4.6-5.8,4.6c-2.8,0-5.8-1.5-5.8-4.6
				C353.9,96.8,356.9,95.4,359.7,95.4z M361.1,102.4c1.1-0.2,2.4-0.8,2.4-2.4c0-2.5-3.3-2.6-3.7-2.6c-0.3,0-2.1,0-3.1,1
				C358.8,98.8,360.8,100.1,361.1,102.4z M359,102.5c-0.3-1.5-1.9-2-2.9-2.1C356.3,102,358,102.4,359,102.5z"/>
			<path class="st0" d="M359.7,84.3c2.3,0,4.6,1.1,4.6,3.7s-2.3,3.7-4.6,3.7s-4.6-1.1-4.6-3.7S357.4,84.3,359.7,84.3z M362.3,88
				c0-0.3-0.1-1.6-2.6-1.6c-1.8,0-2.3,0.7-2.5,1.2c1.1,0.3,2,1,2.4,2c0,0,0,0,0.1,0C362.2,89.6,362.3,88.3,362.3,88z"/>
			<path class="st3" d="M363.4,100c0,1.6-1.3,2.2-2.4,2.4c-0.3-2.3-2.2-3.6-4.4-4c1-1,2.8-1,3.1-1C360.1,97.4,363.4,97.5,363.4,100z
				"/>
			<path class="st3" d="M359.7,86.4c2.4,0,2.6,1.3,2.6,1.6c0,0.3-0.1,1.6-2.6,1.6c0,0,0,0-0.1,0c-0.4-1-1.3-1.7-2.4-2
				C357.4,87.1,358,86.4,359.7,86.4z"/>
			<path class="st3" d="M349.5,88c0,1.9,0.6,3.7,1.6,5.1c-0.8,0.8-1.4,1.8-1.9,2.8l-0.4-0.4c-1.1-1.2-1.7-2.8-1.7-4.6
				c0-1.1,0.2-2.2,0.7-3.1c0.5-0.9,1.1-1.8,2-2.4C349.6,86.3,349.5,87.1,349.5,88z"/>
			<path class="st3" d="M355.3,111.1c-2.4,0-4.6-0.7-6.3-2c-2-1.5-3.1-3.7-3.1-6.2c0-2.4,1-4.5,2.7-6l0.1-0.1c-0.3,1-0.5,2-0.5,3.1
				c0,3.2,1.4,6,3.9,7.9c2,1.5,4.7,2.4,7.5,2.4C358.4,110.8,356.9,111.1,355.3,111.1z"/>
			<path class="st3" d="M345.1,91c0,1.9,0.5,3.7,1.6,5.1c-0.8,0.8-1.4,1.8-1.9,2.8l-0.4-0.4c-1.1-1.2-1.7-2.8-1.7-4.6
				c0-2.2,1-4.2,2.7-5.5h0C345.2,89.2,345.1,90.1,345.1,91z"/>
			<path class="st0" d="M344.4,99.9l-0.1,0.1c-1.8,1.5-2.7,3.6-2.7,6c0,2.5,1.1,4.7,3.1,6.2c1.7,1.3,3.9,2,6.3,2
				c1.6,0,3.1-0.3,4.4-0.9c-2.8,0-5.4-0.9-7.5-2.4c-2.5-1.9-3.9-4.7-3.9-7.9C343.9,101.9,344.1,100.8,344.4,99.9z M344.8,98.9
				c0.5-1,1.1-2,1.9-2.8c-1-1.5-1.6-3.2-1.6-5.1c0-0.9,0.1-1.7,0.3-2.6h0c-1.7,1.3-2.7,3.3-2.7,5.5c0,1.7,0.6,3.3,1.7,4.6
				L344.8,98.9z M348.8,96.9l-0.1,0.1c-1.8,1.5-2.7,3.6-2.7,6c0,2.5,1.1,4.7,3.1,6.2c1.7,1.3,3.9,2,6.3,2c1.6,0,3.1-0.3,4.4-0.9
				c-2.8,0-5.4-0.8-7.5-2.4c-2.5-1.9-3.9-4.7-3.9-7.9C348.3,98.9,348.5,97.9,348.8,96.9z M349.2,95.9c0.5-1,1.1-2,1.9-2.8
				c-1-1.5-1.6-3.2-1.6-5.1c0-0.9,0.1-1.7,0.3-2.5c-0.9,0.7-1.6,1.5-2,2.4c-0.5,0.9-0.7,2-0.7,3.1c0,1.7,0.6,3.3,1.7,4.6L349.2,95.9
				z M368.4,93.2c1.8,1.8,2.7,4.2,2.7,6.9c0,3.2-1.4,6-3.9,7.9c-0.9,0.7-1.9,1.2-2.9,1.6c-0.4,0.5-0.9,0.9-1.5,1.4
				c-0.9,0.7-1.9,1.2-3,1.6c-0.4,0.5-0.9,0.9-1.5,1.4c-2,1.5-4.7,2.4-7.5,2.4c-2.8,0-5.5-0.8-7.5-2.4c-2.5-1.9-3.9-4.7-3.9-7.9
				c0-2.6,1-5,2.7-6.9c-1-1.5-1.6-3.2-1.6-5.1c0-2.9,1.3-5.4,3.5-7.1c0.9-0.7,1.8-1.2,2.9-1.5c0.4-0.5,0.9-1,1.5-1.4
				c0.9-0.6,1.9-1.2,2.9-1.5c0.4-0.5,0.9-1,1.5-1.4c1.8-1.4,4.2-2.1,6.7-2.1c2.5,0,4.9,0.8,6.7,2.1c2.3,1.7,3.5,4.3,3.5,7.1
				C370,89.9,369.4,91.7,368.4,93.2z M369.1,100c0-2.4-1-4.5-2.7-6l-0.8-0.7l0.7-0.8c1.1-1.2,1.7-2.8,1.7-4.6c0-2.2-1-4.2-2.7-5.5
				c-1.5-1.1-3.4-1.7-5.5-1.7c-2.1,0-4,0.6-5.5,1.7c-1.7,1.3-2.7,3.3-2.7,5.5c0,1.7,0.6,3.3,1.7,4.6l0.7,0.8l-0.8,0.7
				c-1.8,1.5-2.7,3.6-2.7,6c0,2.5,1.1,4.7,3.1,6.2c1.7,1.3,3.9,2,6.3,2c2.4,0,4.6-0.7,6.3-2C368,104.7,369.1,102.5,369.1,100z"/>
			<path class="st3" d="M347.8,110.8c2,1.5,4.7,2.4,7.5,2.4c-1.3,0.6-2.8,0.9-4.4,0.9c-2.4,0-4.6-0.7-6.3-2c-2-1.5-3.1-3.7-3.1-6.2
				c0-2.4,1-4.5,2.7-6l0.1-0.1c-0.3,1-0.5,2-0.5,3.1C343.9,106.1,345.3,108.9,347.8,110.8z"/>
			<path class="st0" d="M334.4,85.6v29.5H330v2.9h-4.4v2.9h-7.7V91.5h4.4v-2.9h4.4v-2.9H334.4z M332.4,113.1V87.7h-3.5v25.4H332.4z
				 M327.9,116v-0.9h-1.2V90.7h-2.4V116H327.9z M323.5,119v-0.9h-1.2V93.6H320V119H323.5z"/>
			<rect x="328.8" y="87.7" class="st1" width="3.5" height="25.4"/>
			<polygon class="st3" points="327.9,115.2 327.9,116 324.4,116 324.4,90.7 326.8,90.7 326.8,115.2 			"/>
			<polygon class="st3" points="323.5,118.1 323.5,119 320,119 320,93.6 322.3,93.6 322.3,118.1 			"/>
			<path class="st0" d="M312.9,94c0,3.8-1,7.5-2.9,10.3c-1.5,2.2-3.5,3.8-5.8,4.6c-1.3,1.3-2.8,2.3-4.4,3c-2.3,2.4-5.2,3.7-8.6,3.7
				h-0.1c-4-0.1-7.3-1.9-9.7-5.2c-2-2.9-3.1-6.7-3.1-10.7c0-3.8,1.1-7.4,3-10.1c1.5-2.1,3.4-3.7,5.7-4.5c1.3-1.3,2.8-2.3,4.4-2.9
				c2.3-2.4,5.2-3.7,8.6-3.7c3.9,0,7.3,1.7,9.6,5C311.7,86.2,312.9,90,312.9,94z M308.2,103.1c1.6-2.4,2.6-5.7,2.6-9.1
				c0-6.7-3.7-13.6-10.8-13.6c-3.3,0-6.2,1.5-8.1,4.3c-1.6,2.4-2.6,5.5-2.6,8.9c-0.1,6.8,3.6,13.7,10.7,13.9h0.1
				C303.4,107.6,306.3,106,308.2,103.1z M295.6,110.5c1.5,0,2.9-0.3,4.1-0.9c-3.9-0.2-7.1-1.9-9.4-5.2c-2-2.9-3.1-6.7-3.1-10.7
				c0-2.7,0.6-5.3,1.5-7.5c-0.5,0.5-0.9,1-1.3,1.5c-1.6,2.4-2.6,5.5-2.6,8.9C284.8,103.4,288.4,110.4,295.6,110.5L295.6,110.5z
				 M291.2,113.5c1.5,0,2.9-0.3,4.1-0.9c-3.9-0.2-7.1-2-9.4-5.2c-2-2.9-3.1-6.7-3.1-10.7c0-2.7,0.6-5.3,1.5-7.5
				c-0.5,0.5-0.9,1-1.3,1.5c-1.6,2.4-2.6,5.5-2.6,8.9C280.4,106.4,284,113.3,291.2,113.5L291.2,113.5z"/>
			<path class="st1" d="M310.8,94c0,3.4-0.9,6.7-2.6,9.1c-1.9,2.9-4.9,4.5-8.2,4.5H300c-7.1-0.2-10.8-7.1-10.7-13.9
				c0-3.4,1-6.6,2.6-8.9c1.9-2.8,4.8-4.3,8.1-4.3C307.1,80.4,310.8,87.3,310.8,94z M307.2,94c0-2.5-0.6-4.9-1.6-6.7
				c-1.3-2.2-3.2-3.4-5.6-3.4c-5.6,0-7.2,6.1-7.2,9.8c-0.1,4.9,2.2,10.2,7.2,10.3h0h0c2.2,0,3.9-1,5.2-2.9
				C306.5,99.3,307.2,96.7,307.2,94z"/>
			<path class="st0" d="M305.6,87.4c1.1,1.8,1.6,4.1,1.6,6.7c0,2.7-0.7,5.3-1.9,7.1c-1.3,1.9-3.1,2.9-5.2,2.9h0h0
				c-5-0.1-7.3-5.4-7.2-10.3c0-3.6,1.6-9.8,7.2-9.8C302.4,84,304.3,85.2,305.6,87.4z M303.6,100c1-1.5,1.6-3.7,1.6-6
				c0-3.8-1.6-8-5.1-8c-1.1,0-2.1,0.4-2.8,1.1c1.6,0.4,3,1.5,4,3.2c1.1,1.8,1.6,4.1,1.6,6.7c0,1.6-0.2,3.1-0.7,4.5
				C302.7,101.1,303.2,100.6,303.6,100z M299.7,102c0.7-1.4,1-3.1,1-5c0-3.7-1.5-7.7-4.8-8c-0.3,0.7-0.6,1.5-0.7,2.3
				c0.6,0.5,1.1,1.2,1.6,1.9c1.1,1.8,1.6,4.2,1.6,6.7c0,0.5,0,1.1-0.1,1.6C298.7,101.8,299.2,101.9,299.7,102z M296.3,99.6
				c0-2-0.5-4-1.4-5.5C294.9,96.2,295.4,98.2,296.3,99.6z"/>
			<path class="st3" d="M305.2,94c0,2.3-0.6,4.5-1.6,6c-0.4,0.6-0.9,1.1-1.4,1.4c0.4-1.4,0.7-2.9,0.7-4.5c0-2.5-0.6-4.9-1.6-6.7
				c-1-1.7-2.4-2.8-4-3.2c0.8-0.7,1.7-1.1,2.8-1.1C303.6,86.1,305.2,90.2,305.2,94z"/>
			<path class="st3" d="M300.8,97c0,1.8-0.4,3.6-1,5c-0.5-0.1-1-0.2-1.4-0.4c0.1-0.5,0.1-1.1,0.1-1.6c0-2.5-0.6-4.9-1.6-6.7
				c-0.5-0.8-1-1.4-1.6-1.9c0.2-0.8,0.4-1.6,0.7-2.3C299.2,89.2,300.8,93.2,300.8,97z"/>
			<path class="st3" d="M288.8,86.2c-1,2.2-1.5,4.8-1.5,7.5c0,4,1.1,7.8,3.1,10.7c2.3,3.3,5.5,5.1,9.4,5.2c-1.3,0.6-2.6,0.9-4.1,0.9
				h0c-7.1-0.2-10.8-7.1-10.7-13.9c0-3.4,1-6.6,2.6-8.9C287.9,87.2,288.3,86.7,288.8,86.2z"/>
			<path class="st3" d="M280.4,99.6c0-3.4,1-6.6,2.6-8.9c0.4-0.6,0.8-1.1,1.3-1.5c-1,2.2-1.5,4.8-1.5,7.5c0,4,1.1,7.8,3.1,10.7
				c2.3,3.3,5.5,5.1,9.4,5.2c-1.3,0.6-2.6,0.9-4.1,0.9h0C284,113.3,280.4,106.4,280.4,99.6z"/>
			<path class="st0" d="M273.3,101.4v7.7h-5.9v2.9h-5.9v2.9h-23.1l4.9-8.2c2.6-4.3,4.8-7.9,7.6-12.3c0.5-0.7,0.4-1.4,0.4-1.6
				c-0.1-0.1-0.6-0.1-1.4,0c-0.4,0.2-1.5,1.4-2.3,2.8l-0.5,0.9l-6.7-3.8l0.5-0.9c0.1-0.2,0.8-1.4,1.9-2.7c1.8-2.2,3.7-3.5,5.7-3.8
				c0.4-0.1,0.7-0.1,1.1-0.1c1.5-1.6,3.2-2.5,4.8-2.8c0.4-0.1,0.7-0.1,1.1-0.1c1.5-1.6,3.2-2.5,4.8-2.8c4-0.7,7.3,0.5,9.1,3.3
				c1.9,2.8,1.7,6.8-0.3,10c-1.9,3-3.5,5.6-5.4,8.6H273.3z M271.2,107v-3.5h-11.1l0.9-1.6c2.3-3.8,4.1-6.8,6.4-10.3
				c1.6-2.5,1.7-5.6,0.3-7.8c-1.4-2.1-3.9-3-7.1-2.4c-1.5,0.3-3,1.3-4.5,3.1c-0.5,0.6-0.8,1.1-1.1,1.5l3.1,1.8
				c0.8-1.2,2.1-2.6,3-2.9l0.1,0c1.2-0.2,2.8-0.2,3.5,0.9c0.6,1,0.5,2.6-0.3,3.9c-2.8,4.4-5.1,8.1-7.7,12.4l-3,4.9H271.2z
				 M265.3,110v-0.9h-15.2l4.8-8c2.6-4.3,4.8-8,7.6-12.4c-0.1-0.6-0.4-1.2-0.7-1.8c-0.1,0-0.1,0-0.2,0c-0.4,0.2-1.5,1.4-2.3,2.8
				l-0.1,0.2c0.1,0.9-0.2,1.9-0.7,2.7c-2.8,4.4-5,8-7.6,12.3l-3,5H265.3z M259.4,112.9V112h-15.2l4.9-8.2c2.6-4.2,4.8-7.9,7.6-12.2
				c-0.2-0.6-0.4-1.2-0.7-1.8c-0.1,0-0.1,0-0.2,0c-0.4,0.2-1.5,1.4-2.3,2.8l-0.1,0.2c0.1,0.9-0.2,1.8-0.7,2.7c-2.8,4.4-5,8-7.6,12.3
				l-3,5H259.4z M254.7,88.2l-2.4-1.4l0.5-0.9c0.1-0.1,0.3-0.5,0.7-1.1c-1,0.5-2.1,1.4-3.1,2.6c-0.5,0.6-0.8,1.1-1.1,1.5l3.1,1.8
				C252.9,89.9,253.8,88.8,254.7,88.2z M248.8,91.2l-2.4-1.4l0.5-0.9c0.1-0.1,0.3-0.5,0.7-1.1c-1,0.5-2.1,1.4-3.1,2.6
				c-0.5,0.6-0.8,1.1-1.1,1.5l3.1,1.8C247,92.8,247.9,91.7,248.8,91.2z"/>
			<path class="st1" d="M271.2,103.5v3.5h-17.4l3-4.9c2.6-4.3,4.8-8,7.7-12.4c0.8-1.3,1-2.9,0.3-3.9c-0.7-1.1-2.3-1.1-3.5-0.9
				l-0.1,0c-1,0.2-2.2,1.7-3,2.9l-3.1-1.8c0.3-0.4,0.7-1,1.1-1.5c1.5-1.8,3-2.8,4.5-3.1c3.1-0.5,5.7,0.3,7.1,2.4
				c1.4,2.1,1.3,5.3-0.3,7.8c-2.2,3.5-4.1,6.5-6.4,10.3l-0.9,1.6H271.2z"/>
			<path class="st3" d="M252.3,86.8l2.4,1.4c-0.8,0.5-1.8,1.7-2.4,2.6l-3.1-1.8c0.3-0.4,0.7-1,1.1-1.5c1-1.2,2.1-2.1,3.1-2.6
				c-0.4,0.6-0.6,0.9-0.7,1.1L252.3,86.8z"/>
			<path class="st3" d="M250.2,109.1h15.2v0.9h-17.4l3-5c2.6-4.2,4.8-7.9,7.6-12.3c0.6-0.8,0.8-1.8,0.7-2.7l0.1-0.2
				c0.8-1.4,1.9-2.6,2.3-2.8c0.1,0,0.1,0,0.2,0c0.3,0.5,0.6,1.1,0.7,1.8c-2.8,4.4-5.1,8.1-7.6,12.4L250.2,109.1z"/>
			<path class="st3" d="M246.3,89.8l2.4,1.4c-0.8,0.5-1.8,1.7-2.4,2.6l-3.1-1.8c0.3-0.4,0.7-1,1.1-1.5c1-1.2,2.1-2.1,3.1-2.6
				c-0.4,0.6-0.6,1-0.7,1.1L246.3,89.8z"/>
			<path class="st3" d="M256.8,91.7c-2.8,4.3-5,8-7.6,12.2l-4.9,8.2h15.2v0.9H242l3-5c2.6-4.2,4.8-7.9,7.6-12.3
				c0.5-0.8,0.8-1.8,0.7-2.7l0.1-0.2c0.8-1.4,1.9-2.5,2.3-2.8c0.1,0,0.1,0,0.2,0C256.4,90.4,256.6,91,256.8,91.7z"/>
		</g>
		<g>
		</g>
	</g>
</g>
</svg>
