<?xml version="1.0" encoding="utf-8"?>
<!-- Generator: Adobe Illustrator 22.1.0, SVG Export Plug-In . SVG Version: 6.00 Build 0)  -->
<svg version="1.1" id="Layer_1" xmlns="http://www.w3.org/2000/svg" xmlns:xlink="http://www.w3.org/1999/xlink" x="0px" y="0px"
	 viewBox="0 0 786.8 690.7" style="enable-background:new 0 0 786.8 690.7;" xml:space="preserve">
<style type="text/css">
	.st0{fill:#72C7E7;}
	.st1{fill:#F5EC5A;}
	.st2{fill:#FACED7;}
	.st3{fill:#FFFFFF;}
	.st4{fill:none;}
	.st5{clip-path:url(#SVGID_2_);}
</style>
<g>
	<g>
		<g>
			<polygon class="st0" points="201,605.4 126.5,672 126.5,460.1 703.9,358.3 703.9,516.7 			"/>
			<path d="M118.1,690.7V453l594.2-104.8v175.5l-507.5,89.5L118.1,690.7z M134.9,467.2v186l62.3-55.6l2.4-0.4l495.9-87.4V368.3
				L134.9,467.2z"/>
		</g>
		<g>
			<polygon class="st1" points="346.9,421.2 8.4,480.9 8.4,322.5 346.9,262.8 			"/>
			<path d="M0,490.9V315.4l355.4-62.7v175.5L0,490.9z M16.8,329.5v141.4l321.7-56.7V272.8L16.8,329.5z"/>
		</g>
		<g>
			<polygon class="st2" points="586,258.4 346.9,300.6 346.9,142.1 586,100 			"/>
			<path d="M338.5,310.6V135.1L594.4,90v175.5L338.5,310.6z M355.4,149.2v141.4l222.2-39.2V110L355.4,149.2z"/>
		</g>
		<g>
			<polygon class="st1" points="384.2,376.2 45.7,435.9 45.7,277.5 384.2,217.8 			"/>
			<path d="M37.3,446V270.4l355.4-62.7v175.5L37.3,446z M54.1,284.5v141.4l321.7-56.7V227.8L54.1,284.5z"/>
		</g>
		<g>
			<polygon class="st0" points="741.1,471.7 163.7,573.6 163.7,415.1 741.1,313.3 			"/>
			<path d="M155.3,583.6V408.1l594.2-104.8v175.5L155.3,583.6z M172.1,422.2v141.4l560.6-98.8V323.3L172.1,422.2z"/>
		</g>
		<g>
			<polygon class="st2" points="623.3,213.5 384.2,255.6 384.2,97.2 623.3,55 			"/>
			<path d="M375.8,265.6V90.1L631.7,45v175.5L375.8,265.6z M392.6,104.2v141.4l222.2-39.2V65L392.6,104.2z"/>
		</g>
		<polygon class="st3" points="421.5,331.2 82.9,390.9 82.9,232.5 421.5,172.8 		"/>
		<path d="M74.5,401V225.4l355.4-62.7v175.5L74.5,401z M91.3,239.6V381L413,324.3V182.8L91.3,239.6z"/>
		<polygon class="st3" points="421.5,208.3 421.5,328.9 660.5,286.8 660.5,166.1 		"/>
		<g>
			<polygon class="st3" points="778.4,426.8 201,528.6 201,370.1 778.4,268.3 			"/>
			<path d="M192.6,538.6V363.1l594.2-104.8v175.5L192.6,538.6z M209.4,377.2v141.4L770,419.7V278.3L209.4,377.2z"/>
		</g>
		<g>
			<polygon class="st3" points="660.5,168.5 421.5,210.6 421.5,52.2 660.5,10 			"/>
			<path d="M413.1,220.6V45.1L668.9,0v175.5L413.1,220.6z M429.9,59.2v141.4l222.2-39.2V20L429.9,59.2z"/>
		</g>
		<path d="M413.1,341.3V203.6L669,158.5v137.7L413.1,341.3z M429.9,217.7v103.6L652.1,282V178.5L429.9,217.7z"/>
		<g>
			<path d="M139.5,347.7c0,1.4-1.1,2.7-2.4,2.9l-16.6,2.9c-1.3,0.2-2.4-0.7-2.4-2.1v-92.8c0-1.4,1.1-2.7,2.4-2.9l33.5-5.9
				c25.8-4.5,33.6,13.1,33.6,26.4c0,19.6-16.4,35.6-32,38.4l-16.1,2.8V347.7z M166.3,280c0-4.1-2.1-11.2-11.7-9.5l-15.2,2.7v23.3
				l15.6-2.7C164.2,291.8,166.3,283.6,166.3,280z"/>
			<path d="M296.5,273.6c0,21-10.9,52.5-46.1,58.7c-35.4,6.2-46.3-21.5-46.3-42.4c0-20.4,10.9-52.4,46.3-58.6
				C285.6,225.1,296.5,253.2,296.5,273.6z M274.8,277.4c0-7.3-3.1-28.8-24.5-25c-21.5,3.8-24.6,26.4-24.6,33.7
				c0,7.3,3.1,29.1,24.6,25.3C271.8,307.6,274.8,284.7,274.8,277.4z"/>
			<path d="M340.3,312.6c0,1.4-1.1,2.7-2.4,2.9l-16.6,2.9c-1.3,0.2-2.4-0.7-2.4-2.1v-92.8c0-1.4,1.1-2.7,2.4-2.9l33.5-5.9
				c25.8-4.5,33.6,13.1,33.6,26.4c0,19.6-16.4,35.6-32,38.4l-16.1,2.8V312.6z M367.2,244.8c0-4.1-2.1-11.2-11.7-9.5l-15.2,2.7v23.3
				l15.6-2.7C365.1,256.7,367.2,248.5,367.2,244.8z"/>
		</g>
		<g>
			<path d="M511.4,125.9V69c0-1.4,1.1-2.7,2.4-2.9l16.6-2.9c1.3-0.2,2.4,0.7,2.4,2.1v56.9c0,16.6-9.6,41.1-37.2,46
				c-27.7,4.9-37.2-16.2-37.2-32.8v-57c0-1.4,1.1-2.7,2.4-2.9l16.5-2.9c1.3-0.2,2.4,0.7,2.4,2.1v56.9c0,5.2,3.3,18.1,16,15.9
				C508.2,145.2,511.4,131.1,511.4,125.9z"/>
			<path d="M579.4,149.8c0,1.4-1.1,2.7-2.4,2.9l-16.6,2.9c-1.3,0.2-2.4-0.7-2.4-2.1V60.8c0-1.4,1.1-2.7,2.4-2.9l33.5-5.9
				c25.8-4.5,33.6,13.1,33.6,26.4c0,19.6-16.4,35.6-32,38.4l-16.1,2.8V149.8z M606.3,82c0-4.1-2.1-11.2-11.7-9.5l-15.2,2.7v23.3
				l15.6-2.7C604.2,93.9,606.3,85.7,606.3,82z"/>
		</g>
		<g>
			<path d="M306.7,450.3c0,17.1-14.1,32.8-34.4,36.4c-12.9,2.3-23.4,0.8-34.7-3.4c-1.2-0.3-1.6-1.8-1.1-3.2l7.3-15.5
				c0.5-1.3,2-2,3.2-1.7c8.5,2.6,16.8,4.3,24.5,3c6.9-1.2,12.8-5.7,12.8-10.6c0-6.2-7.2-7.5-16-8.9c-13.4-2.2-30.3-4.7-30.3-24.8
				c0-18.3,12.9-31.5,30.7-34.6c5.8-1,18.1-2.4,33.6,2.5c1.2,0.5,1.7,1.8,1.2,3.3l-6,15.4c-0.5,1.4-1.9,2.1-3.2,1.8
				c-5.8-1.2-16.9-3.5-24.3-2.1c-5.6,1-10.8,3.7-10.6,9c0.5,5.9,9.8,6.9,20.2,9C292.5,428.3,306.7,432.5,306.7,450.3z"/>
			<path d="M342.3,396.3l-21.9,3.9c-1.3,0.2-2.4-0.7-2.4-2.1v-15.8c0-1.4,1.1-2.7,2.4-2.9l65.5-11.6c1.3-0.2,2.4,0.7,2.4,2.1v15.8
				c0,1.4-1.1,2.7-2.4,2.9l-22.2,3.9V467c0,1.4-1.1,2.7-2.4,2.9l-16.6,2.9c-1.3,0.2-2.4-0.7-2.4-2.1V396.3z"/>
			<path d="M459.3,414.2v-56.9c0-1.4,1.1-2.7,2.4-2.9l16.6-2.9c1.3-0.2,2.4,0.7,2.4,2.1v56.9c0,16.6-9.6,41.1-37.2,46
				c-27.7,4.9-37.2-16.2-37.2-32.8v-56.9c0-1.4,1.1-2.7,2.4-2.9l16.5-2.9c1.3-0.2,2.4,0.7,2.4,2.1V420c0,5.2,3.3,18.1,16,15.9
				C456.1,433.5,459.3,419.4,459.3,414.2z"/>
			<path d="M508.3,444c-1.3,0.2-2.4-0.7-2.4-2.1v-92.8c0-1.4,1.1-2.7,2.4-2.9l31.1-5.5c35.4-6.2,46.1,20.2,46.1,40.6
				c0,21-10.8,51-46.1,57.2L508.3,444z M539.5,417.7c21.5-3.8,24.6-25.3,24.6-32.6c0-7.3-3.1-27.6-24.6-23.8l-12.4,2.2v56.3
				L539.5,417.7z"/>
			<path d="M628.1,420.4c0,1.4-1.1,2.7-2.4,2.9l-16.5,2.9c-1.3,0.2-2.4-0.7-2.4-2.1v-92.8c0-1.4,1.1-2.7,2.4-2.9l16.5-2.9
				c1.3-0.2,2.4,0.7,2.4,2.1V420.4z"/>
			<path d="M741.8,353.8c0,21-10.9,52.5-46.1,58.7c-35.4,6.2-46.3-21.5-46.3-42.4c0-20.4,10.9-52.4,46.3-58.6
				C730.9,305.2,741.8,333.4,741.8,353.8z M720.1,357.6c0-7.3-3.1-28.8-24.5-25c-21.5,3.8-24.6,26.4-24.6,33.7
				c0,7.3,3.1,29.1,24.6,25.3S720.1,364.9,720.1,357.6z"/>
		</g>
		<g>
			<path d="M218.4,671.5c0,0.6-0.4,1.1-1,1.2l-6.9,1.2c-0.6,0.1-1-0.3-1-0.9v-38.5c0-0.6,0.4-1.1,1-1.2l13.9-2.5
				c10.7-1.9,14,5.4,14,10.9c0,8.1-6.8,14.8-13.3,15.9l-6.7,1.2V671.5z M229.6,643.4c0-1.7-0.9-4.7-4.9-4l-6.3,1.1v9.7l6.5-1.1
				C228.7,648.3,229.6,644.9,229.6,643.4z"/>
			<path d="M283.4,640.8c0,8.7-4.5,21.8-19.2,24.4c-14.7,2.6-19.2-8.9-19.2-17.6c0-8.5,4.5-21.7,19.2-24.3
				C278.8,620.6,283.4,632.3,283.4,640.8z M274.4,642.3c0-3-1.3-12-10.2-10.4c-8.9,1.6-10.2,11-10.2,14s1.3,12.1,10.2,10.5
				C273.1,654.9,274.4,645.4,274.4,642.3z"/>
			<path d="M313.8,640.6l6.3,13.2c0.2,0.4-0.1,0.9-0.6,1l-7.7,1.4c-0.6,0.1-1.2-0.1-1.4-0.7l-5.6-11.7l-3.9,0.7V657
				c0,0.6-0.4,1.1-1,1.2l-6.8,1.2c-0.6,0.1-1-0.3-1-0.9V620c0-0.6,0.4-1.1,1-1.2l13.8-2.4c10.7-1.9,14,5.4,14,10.9
				C320.9,633,318,637.7,313.8,640.6z M312.1,628.8c0-1.7-0.9-4.7-4.9-4L301,626v9.7l6.5-1.1C311.2,633.8,312.1,630.4,312.1,628.8z"
				/>
			<path d="M335.7,619.9l-9.1,1.6c-0.6,0.1-1-0.3-1-0.9V614c0-0.6,0.4-1.1,1-1.2l27.2-4.8c0.6-0.1,1,0.3,1,0.9v6.6
				c0,0.6-0.4,1.1-1,1.2l-9.2,1.6v30.9c0,0.6-0.4,1.1-1,1.2l-6.9,1.2c-0.6,0.1-1-0.3-1-0.9V619.9z"/>
			<path d="M389.1,630.4c0,7.1-5.9,13.6-14.3,15.1c-5.4,0.9-9.7,0.3-14.4-1.4c-0.5-0.1-0.7-0.8-0.4-1.3l3-6.5
				c0.2-0.6,0.8-0.8,1.3-0.7c3.5,1.1,7,1.8,10.2,1.2c2.9-0.5,5.3-2.4,5.3-4.4c0-2.6-3-3.1-6.6-3.7c-5.6-0.9-12.6-2-12.6-10.3
				c0-7.6,5.4-13.1,12.7-14.4c2.4-0.4,7.5-1,14,1c0.5,0.2,0.7,0.7,0.5,1.4l-2.5,6.4c-0.2,0.6-0.8,0.9-1.3,0.8
				c-2.4-0.5-7-1.4-10.1-0.9c-2.3,0.4-4.5,1.5-4.4,3.7c0.2,2.5,4.1,2.9,8.4,3.7C383.2,621.2,389.1,622.9,389.1,630.4z"/>
			<path d="M406.8,638.3c0,0.6-0.4,1.1-1,1.2l-6.9,1.2c-0.6,0.1-1-0.3-1-0.9v-38.5c0-0.6,0.4-1.1,1-1.2l6.9-1.2c0.6-0.1,1,0.3,1,0.9
				V615l14.3-2.5v-15.2c0-0.6,0.4-1.1,1-1.2l6.8-1.2c0.6-0.1,1,0.3,1,0.9v38.5c0,0.6-0.4,1.1-1,1.2l-6.8,1.2c-0.6,0.1-1-0.3-1-0.9
				v-14.7l-14.3,2.5V638.3z"/>
			<path d="M477.1,606.6c0,8.7-4.5,21.8-19.2,24.4c-14.7,2.6-19.2-8.9-19.2-17.6c0-8.5,4.5-21.7,19.2-24.3
				C472.5,586.5,477.1,598.1,477.1,606.6z M468.1,608.2c0-3-1.3-12-10.2-10.4c-8.9,1.6-10.2,11-10.2,14s1.3,12.1,10.2,10.5
				C466.8,620.7,468.1,611.2,468.1,608.2z"/>
			<path d="M526.6,578.6c0.2-0.6,0.8-1.1,1.4-1.2l7.9-1.4c0.4-0.1,0.8,0.4,0.6,0.8l-17.1,42.4c-0.2,0.5-0.7,0.9-1.1,0.9
				c-0.5,0.1-0.9-0.1-1.1-0.6l-8.8-19.4l-8.8,22.5c-0.2,0.5-0.7,0.9-1.1,0.9c-0.5,0.1-0.9-0.1-1.1-0.6l-17.1-36.4
				c-0.2-0.4,0.2-1,0.6-1l7.9-1.4c0.6-0.1,1.2,0.2,1.4,0.7l8.4,19.4l8.6-23c0.2-0.6,0.7-1,1.2-1.1c0.6-0.1,1,0.2,1.2,0.7l8.6,20
				L526.6,578.6z"/>
			<path d="M552.9,605l13-2.3c0.6-0.1,1,0.3,1,0.9v6.6c0,0.6-0.4,1.1-1,1.2L545,615c-0.6,0.1-1-0.3-1-0.9v-38.5c0-0.6,0.4-1.1,1-1.2
				l6.9-1.2c0.6-0.1,1,0.3,1,0.9V605z"/>
			<path d="M584.5,607c0,0.6-0.4,1.1-1,1.2l-6.8,1.2c-0.6,0.1-1-0.3-1-0.9V570c0-0.6,0.4-1.1,1-1.2l6.8-1.2c0.6-0.1,1,0.3,1,0.9V607
				z"/>
			<path d="M631.7,579.3c0,8.7-4.5,21.8-19.2,24.4c-14.7,2.6-19.2-8.9-19.2-17.6c0-8.5,4.5-21.7,19.2-24.3
				C627.2,559.2,631.7,570.9,631.7,579.3z M622.7,580.9c0-3-1.3-12-10.2-10.4s-10.2,11-10.2,14s1.3,12.1,10.2,10.5
				C621.5,593.4,622.7,583.9,622.7,580.9z"/>
			<path d="M649.3,572c-0.5-0.2-0.7-0.8-0.4-1.4c1.1-2.3,2.4-5.6,2.7-7.2c-1.8-0.1-3.3-1.7-3.3-4.1c0-2.8,2.3-5.4,4.8-5.9
				c3.8-0.7,5.1,1.9,5.1,4.6c0,3.5-3.1,10.5-5.5,14.2c-0.3,0.5-1,0.8-1.5,0.6L649.3,572z"/>
			<path d="M679.1,590.3c0,0.6-0.4,1.1-1,1.2l-6.4,1.1c-0.6,0.1-1-0.3-1-0.9v-25.5l-4.2,2.9c-0.5,0.3-1.1,0.3-1.4-0.2l-2.3-3.6
				c-0.3-0.4-0.2-1.1,0.3-1.6l10.8-10.3c0.5-0.5,1.1-0.8,1.8-0.9l2.4-0.4c0.6-0.1,1,0.3,1,0.9L679.1,590.3L679.1,590.3z"/>
			<path d="M708.2,566.6c3.3,1.3,4.3,4.8,4.3,7.3c0,4.2-2.3,12.4-12.5,14.2s-12.5-5.5-12.5-9.7c0-2.7,1.6-7.1,4.1-8.9
				c-2.7-0.9-4.2-3.7-4.2-7.3c0-4.3,2.4-12.2,12.6-14c10.2-1.8,12.6,5.4,12.5,9.6C712.4,559.7,711.5,563.8,708.2,566.6z
				 M704.3,559.1c0-2.7-2.1-3.6-4.3-3.2c-2.2,0.4-4.4,2-4.4,4.7s2.2,3.7,4.4,3.4C702.2,563.6,704.3,561.8,704.3,559.1z M704.3,575.4
				c0-2.7-2.1-3.7-4.3-3.4c-2.2,0.4-4.4,2.2-4.4,4.9s2.2,3.7,4.4,3.3S704.3,577.9,704.3,575.4z"/>
		</g>
	</g>
	<polygon class="st4" points="421.5,208.3 421.5,328.9 660.5,286.8 660.5,166.1 	"/>
	<g>
		<g>
			<defs>
				<polygon id="SVGID_1_" points="421.5,208.3 421.5,328.9 660.5,286.8 660.5,166.1 				"/>
			</defs>
			<clipPath id="SVGID_2_">
				<use xlink:href="#SVGID_1_"  style="overflow:visible;"/>
			</clipPath>
			<g class="st5">
				<path class="st4" d="M601.4,208.7c-3.9,3.4-9.3,4.3-14.2,2.5l-43.1-16.5L509.3,225c-3.9,3.4-9.3,4.3-14.2,2.5L452,211
					l-41.2,35.8l4.1,23.2l34.9-30.3c3.9-3.4,9.3-4.3,14.2-2.5l43.1,16.5l34.8-30.3c3.9-3.4,9.3-4.3,14.2-2.5l43.1,16.5l34.8-30.3
					c3.9-3.4,9.3-4.3,14.2-2.5l43.1,16.5l-4.1-23.2l-50.9-19.5L601.4,208.7z"/>
				<path class="st4" d="M611.1,264c-3.9,3.4-9.3,4.3-14.2,2.5L553.8,250L519,280.2c-3.9,3.4-9.3,4.3-14.2,2.5l-43.1-16.5L420.6,302
					l4.1,23.2l34.9-30.3c3.9-3.4,9.3-4.3,14.2-2.5l43.1,16.5l34.8-30.3c3.9-3.4,9.3-4.3,14.2-2.5l43.1,16.5l34.8-30.3
					c3.9-3.4,9.3-4.3,14.2-2.5l43.1,16.5l-4.1-23.2l-51-19.4L611.1,264z"/>
				<path class="st4" d="M620.8,319.3c-3.9,3.4-9.3,4.3-14.2,2.5l-43.1-16.5l-34.8,30.3c-3.9,3.4-9.3,4.3-14.2,2.5l-43.1-16.5
					l-41.2,35.8l4.1,23.2l34.9-30.3c3.9-3.4,9.3-4.3,14.2-2.5l43.1,16.5l34.8-30.3c3.9-3.4,9.3-4.3,14.2-2.5l43.1,16.5l34.8-30.3
					c3.9-3.4,9.3-4.3,14.2-2.5l43.1,16.5l-4.1-23.2L655.7,289L620.8,319.3z"/>
				<path class="st4" d="M591.6,153.5c-3.9,3.4-9.3,4.3-14.2,2.5l-43.1-16.5l-34.8,30.3c-3.9,3.4-9.3,4.3-14.2,2.5l-43.1-16.5
					L401,191.6l4.1,23.2l34.9-30.3c3.9-3.4,9.3-4.3,14.2-2.5l43.1,16.5l34.8-30.3c3.9-3.4,9.3-4.3,14.2-2.5l43.1,16.5l34.8-30.3
					c3.9-3.4,9.3-4.3,14.2-2.5l43.1,16.5l-4.1-23.2l-50.9-19.5L591.6,153.5z"/>
				<path class="st4" d="M581.9,98.2c-3.9,3.4-9.3,4.3-14.2,2.5l-43.1-16.5l-34.8,30.3c-3.9,3.4-9.3,4.3-14.2,2.5l-43.1-16.5
					l-41.2,35.8l4.1,23.2l34.9-30.3c3.9-3.4,9.3-4.3,14.2-2.5l43.1,16.5l34.8-30.3c3.9-3.4,9.3-4.3,14.2-2.5l43.1,16.5l34.8-30.3
					c3.9-3.4,9.3-4.3,14.2-2.5l43.1,16.5l-4.1-23.2l-50.9-19.5L581.9,98.2z"/>
				<path d="M614.5,96.6l-34.8,30.3l-43.1-16.5c-4.8-1.8-10.3-0.9-14.2,2.5l-34.8,30.3l-43.1-16.5c-4.8-1.8-10.3-0.9-14.2,2.5
					l-34.9,30.3l5.7,32.1l41.2-35.8l43.1,16.5c4.8,1.8,10.3,0.9,14.2-2.5l34.8-30.3l43.1,16.5c4.8,1.8,10.3,0.9,14.2-2.5l34.8-30.3
					l50.9,19.5l-5.7-32.1l-43.1-16.5C623.8,92.3,618.4,93.2,614.5,96.6z"/>
				<path d="M432.5,100.4l43.1,16.5c4.8,1.8,10.3,0.9,14.2-2.5l34.8-30.3l43.1,16.5c4.8,1.8,10.3,0.9,14.2-2.5l34.8-30.3l50.9,19.5
					l-5.3-29.9L386,106.1l5.3,29.9L432.5,100.4z"/>
				<path d="M624.2,151.9l-34.8,30.3l-43.1-16.5c-4.8-1.8-10.3-0.9-14.2,2.5l-34.8,30.3L454.2,182c-4.8-1.8-10.3-0.9-14.2,2.5
					l-34.9,30.3l5.7,32.1L452,211l43.1,16.5c4.8,1.8,10.3,0.9,14.2-2.5l34.8-30.3l43.1,16.5c4.8,1.8,10.3,0.9,14.2-2.5l34.8-30.3
					l50.9,19.5l-5.7-32.1l-43.1-16.5C633.6,147.5,628.1,148.5,624.2,151.9z"/>
				<path d="M634,207.1l-34.8,30.3L556,220.9c-4.8-1.8-10.3-0.9-14.2,2.5L507,253.6l-43.1-16.5c-4.8-1.8-10.3-0.9-14.2,2.5
					l-34.9,30.3l5.7,32.1l41.2-35.8l43.1,16.5c4.8,1.8,10.3,0.9,14.2-2.5l34.8-30.3l43.1,16.5c4.8,1.8,10.3,0.9,14.2-2.5l34.8-30.3
					l50.9,19.5l-5.7-32.1L648,204.5C643.3,202.8,637.9,203.8,634,207.1z"/>
				<path d="M643.7,262.4l-34.8,30.3l-43.1-16.5c-4.8-1.8-10.3-0.9-14.2,2.5L516.8,309l-43.1-16.5c-4.8-1.8-10.3-0.9-14.2,2.5
					l-34.9,30.3l5.7,32.1l41.2-35.8l43.1,16.5c4.8,1.8,10.3,0.9,14.2-2.5l34.8-30.3l43.1,16.5c4.8,1.8,10.3,0.9,14.2-2.5l34.8-30.3
					l50.9,19.5l-5.7-32.1l-43.1-16.5C653,258.1,647.6,259,643.7,262.4z"/>
				<path d="M653.4,317.7L618.6,348l-43.1-16.5c-4.8-1.8-10.3-0.9-14.2,2.5l-34.8,30.3l-43.1-16.5c-4.8-1.8-10.3-0.9-14.2,2.5
					l-34.9,30.3l0.4,2.2L711,334.1l-0.4-2.2l-43.1-16.5C662.8,313.3,657.3,314.3,653.4,317.7z"/>
			</g>
		</g>
	</g>
</g>
</svg>
