<?xml version="1.0" encoding="utf-8"?>
<!-- Generator: Adobe Illustrator 22.1.0, SVG Export Plug-In . SVG Version: 6.00 Build 0)  -->
<svg version="1.1" id="Layer_1" xmlns="http://www.w3.org/2000/svg" xmlns:xlink="http://www.w3.org/1999/xlink" x="0px" y="0px"
	 viewBox="0 0 800 800" style="enable-background:new 0 0 800 800;" xml:space="preserve">
<style type="text/css">
	.st0{fill:#F5EC5A;}
	.st1{fill:#FFFFFF;}
</style>
<g>
	<g>
		<polygon class="st0" points="270,630.2 158.4,737.3 158.4,246.8 514.2,184.9 514.2,588.4 		"/>
		<path d="M132.1,799V224.7l408.5-71.1v457.1l-258.1,44.2L132.1,799z M184.7,268.9v406.5l72.9-69.9l230.2-39.4v-350L184.7,268.9z"/>
	</g>
	<g>
		<polygon class="st1" points="639.7,438.7 283.9,500.6 283.9,97.1 639.7,35.2 		"/>
		<path d="M257.5,531.9v-457L666,3.9v457L257.5,531.9z M310.2,119.2v350.1l303.1-52.7V66.5L310.2,119.2z"/>
	</g>
	<g>
		<path d="M432.6,390.3c0,3.6-2.7,6.9-6.1,7.5l-42.3,7.4c-3.4,0.6-6.1-1.8-6.1-5.3V163.5c0-3.6,2.7-6.9,6.1-7.5l85.3-15
			c65.7-11.6,85.7,33.3,85.7,67.1c0,49.8-41.7,90.7-81.6,97.7l-41,7.2V390.3z M501,217.6c0-10.3-5.4-28.6-29.8-24.3l-38.6,6.8v59.5
			l39.6-7C495.6,247.8,501,226.9,501,217.6z"/>
	</g>
</g>
</svg>
