<?xml version="1.0" encoding="utf-8"?>
<!-- Generator: Adobe Illustrator 22.0.1, SVG Export Plug-In . SVG Version: 6.00 Build 0)  -->
<svg version="1.1" xmlns="http://www.w3.org/2000/svg" xmlns:xlink="http://www.w3.org/1999/xlink" x="0px" y="0px"
	 viewBox="0 0 82.1 67.8" style="enable-background:new 0 0 82.1 67.8;" xml:space="preserve">
<style type="text/css">
	.st0{fill:#FFFFFF;}
</style>
<g id="Layer_2">
	<rect x="-3.9" y="-2.2" class="st0" width="93" height="73"/>
</g>
<g id="Layer_1">
	<g>
		<path d="M30.9,51.5c-0.4,0-0.8-0.3-0.9-0.7l-2.7-10c-0.1-0.5,0.2-1,0.7-1.2c0.5-0.1,1,0.2,1.2,0.7l2.7,10c0.1,0.5-0.2,1-0.7,1.2
			C31.1,51.5,31,51.5,30.9,51.5z"/>
	</g>
	<g>
		<path d="M61.4,30c-0.1,0-0.1,0-0.2,0c-0.5-0.1-0.8-0.6-0.7-1.1l1.8-8.7c0.1-0.5,0.6-0.8,1.1-0.7c0.5,0.1,0.8,0.6,0.7,1.1l-1.8,8.7
			C62.2,29.7,61.9,30,61.4,30z"/>
	</g>
	<g>
		<path d="M72.9,40.8c-0.2,0-0.5-0.1-0.7-0.3c-0.4-0.4-0.4-1,0-1.3l8.2-8.2c0.4-0.4,1-0.4,1.3,0c0.4,0.4,0.4,1,0,1.3l-8.2,8.2
			C73.4,40.7,73.2,40.8,72.9,40.8z"/>
	</g>
	<g>
		<path d="M37,63.6c-0.4,0-0.7-0.2-0.9-0.6c-0.2-0.5,0-1,0.5-1.3l9.9-4.5c0.5-0.2,1,0,1.3,0.5s0,1-0.5,1.3l-9.9,4.5
			C37.2,63.6,37.1,63.6,37,63.6z"/>
	</g>
	<g>
		<path d="M64.7,55.2c-0.3,0-0.6-0.2-0.8-0.5l-4.3-7.5c-0.3-0.5-0.1-1,0.3-1.3c0.5-0.3,1-0.1,1.3,0.3l4.3,7.5c0.3,0.5,0.1,1-0.3,1.3
			C65,55.2,64.8,55.2,64.7,55.2z"/>
	</g>
	<g>
		<path d="M13.9,36.9c-0.3,0-0.7-0.2-0.8-0.5L7.8,26.2c-0.2-0.5-0.1-1,0.4-1.3c0.5-0.2,1-0.1,1.3,0.4l5.3,10.1
			c0.2,0.5,0.1,1-0.4,1.3C14.2,36.9,14.1,36.9,13.9,36.9z"/>
	</g>
	<g>
		<path d="M34.5,13.6c-0.1,0-0.3,0-0.4-0.1l-10-5c-0.5-0.2-0.7-0.8-0.4-1.3c0.2-0.5,0.8-0.7,1.3-0.4l10,5c0.5,0.2,0.7,0.8,0.4,1.3
			C35.2,13.4,34.9,13.6,34.5,13.6z"/>
	</g>
	<g>
		<path d="M11.8,15.1c-0.2,0-0.5-0.1-0.7-0.3L3.9,7.6c-0.4-0.4-0.4-1,0-1.3c0.4-0.4,1-0.4,1.3,0l7.2,7.2c0.4,0.4,0.4,1,0,1.3
			C12.3,15,12.1,15.1,11.8,15.1z"/>
	</g>
	<g>
		<path d="M34.2,26.9h-9.1c-0.5,0-1-0.4-1-1c0-0.5,0.4-1,1-1h9.1c0.5,0,1,0.4,1,1C35.1,26.5,34.7,26.9,34.2,26.9z"/>
	</g>
	<g>
		<path d="M16.9,67.8c-0.1,0-0.1,0-0.2,0c-0.5-0.1-0.9-0.6-0.8-1.1l1.5-9c0.1-0.5,0.6-0.9,1.1-0.8c0.5,0.1,0.9,0.6,0.8,1.1l-1.5,9
			C17.8,67.5,17.4,67.8,16.9,67.8z"/>
	</g>
	<g>
		<path d="M10,48.9H1c-0.5,0-1-0.4-1-1s0.4-1,1-1H10c0.5,0,1,0.4,1,1S10.6,48.9,10,48.9z"/>
	</g>
	<g>
		<path d="M45,46.2c-0.1,0-0.3,0-0.4-0.1c-0.5-0.2-0.7-0.8-0.5-1.3l3.8-8.2c0.2-0.5,0.8-0.7,1.3-0.5c0.5,0.2,0.7,0.8,0.5,1.3
			l-3.8,8.2C45.7,46,45.3,46.2,45,46.2z"/>
	</g>
	<g>
		<path d="M64.4,7.8c-0.2,0-0.5-0.1-0.7-0.3l-5.9-5.9c-0.4-0.4-0.4-1,0-1.3c0.4-0.4,1-0.4,1.3,0l5.9,5.9c0.4,0.4,0.4,1,0,1.3
			C64.9,7.7,64.7,7.8,64.4,7.8z"/>
	</g>
	<g>
		<path d="M48,20C48,20,48,20,48,20c-0.6,0-1-0.5-1-1l0.5-8c0-0.5,0.5-0.9,1-0.9c0.5,0,0.9,0.5,0.9,1l-0.5,8
			C48.9,19.6,48.5,20,48,20z"/>
	</g>
</g>
</svg>
