<?xml version="1.0" encoding="utf-8"?>
<!-- Generator: Adobe Illustrator 22.0.1, SVG Export Plug-In . SVG Version: 6.00 Build 0)  -->
<svg version="1.1" id="Layer_1" xmlns="http://www.w3.org/2000/svg" xmlns:xlink="http://www.w3.org/1999/xlink" x="0px" y="0px"
	 viewBox="0 0 2804.2 2461.8" style="enable-background:new 0 0 2804.2 2461.8;" xml:space="preserve">
<style type="text/css">
	.st0{fill:#72C7E7;}
	.st1{fill:#F5EC5A;}
	.st2{fill:#FACED7;}
	.st3{fill:#FFFFFF;}
	.st4{fill:none;}
	.st5{clip-path:url(#SVGID_2_);}
</style>
<g>
	<g>
		<g>
			<polygon class="st0" points="716.3,2157.7 450.7,2394.9 450.7,1639.8 2508.6,1277 2508.6,1841.7 			"/>
			<path d="M420.8,2461.8v-847.2l2117.8-373.4v625.6L729.9,2185.7L420.8,2461.8z M480.7,1665v663l222-198.3l8.4-1.5l1767.6-311.7
				v-503.9L480.7,1665z"/>
		</g>
		<g>
			<polygon class="st1" points="1236.5,1501.3 30,1714 30,1149.3 1236.5,936.6 			"/>
			<path d="M0,1749.7v-625.6l1266.5-223.3v625.6L0,1749.7z M59.9,1174.4v503.9l1146.6-202.2V972.3L59.9,1174.4z"/>
		</g>
		<g>
			<polygon class="st2" points="2088.5,921.1 1236.5,1071.3 1236.5,506.6 2088.5,356.4 			"/>
			<path d="M1206.6,1107V481.5l911.9-160.8v625.6L1206.6,1107z M1266.5,531.8v503.9l792-139.7V392.1L1266.5,531.8z"/>
		</g>
		<g>
			<polygon class="st1" points="1369.3,1340.9 162.8,1553.7 162.8,989 1369.3,776.2 			"/>
			<path d="M132.8,1589.4V963.8l1266.5-223.3v625.6L132.8,1589.4z M192.7,1014.1V1518l1146.6-202.2V811.9L192.7,1014.1z"/>
		</g>
		<g>
			<polygon class="st0" points="2641.4,1681.3 583.5,2044.2 583.5,1479.5 2641.4,1116.6 			"/>
			<path d="M553.6,2079.9v-625.6l2117.8-373.4v625.6L553.6,2079.9z M613.5,1504.6v503.9l1998-352.3v-503.9L613.5,1504.6z"/>
		</g>
		<g>
			<polygon class="st2" points="2221.3,760.8 1369.3,911 1369.3,346.3 2221.3,196.1 			"/>
			<path d="M1339.4,946.7V321.1l911.9-160.8v625.6L1339.4,946.7z M1399.3,371.4v503.9l792-139.7V231.8L1399.3,371.4z"/>
		</g>
		<polygon class="st3" points="1502.1,1180.6 295.6,1393.3 295.6,828.6 1502.1,615.9 		"/>
		<path d="M265.6,1429V803.5l1266.5-223.3v625.6L265.6,1429z M325.5,853.8v503.9l1146.6-202.2V651.6L325.5,853.8z"/>
		<polygon class="st3" points="1502.1,742.4 1502.1,1172.3 2354.1,1022.1 2354.1,592.1 		"/>
		<g>
			<polygon class="st3" points="2774.2,1521 716.3,1883.9 716.3,1319.1 2774.2,956.3 			"/>
			<path d="M686.4,1919.6V1294l2117.8-373.4v625.6L686.4,1919.6z M746.3,1344.3v503.9l1998-352.3V992L746.3,1344.3z"/>
		</g>
		<g>
			<polygon class="st3" points="2354.1,600.4 1502.1,750.6 1502.1,185.9 2354.1,35.7 			"/>
			<path d="M1472.2,786.4V160.8L2384.1,0v625.6L1472.2,786.4z M1532.1,211.1v503.9l792-139.7V71.4L1532.1,211.1z"/>
		</g>
		<path d="M1472.2,1216.3V725.5l911.9-160.8v490.8L1472.2,1216.3z M1532.1,775.8v369.1l792-139.7V636.1L1532.1,775.8z"/>
		<g>
			<path d="M497,1239.3c0,5-3.8,9.6-8.5,10.5l-59.2,10.4c-4.7,0.8-8.5-2.5-8.5-7.5V922c0-5,3.8-9.6,8.5-10.5l119.4-21.1
				c91.9-16.2,119.9,46.6,119.9,93.9c0,69.7-58.3,126.8-114.2,136.7l-57.3,10.1V1239.3z M592.8,997.8c0-14.4-7.6-40-41.7-34l-54,9.5
				v83.2l55.4-9.8C585.2,1040,592.8,1010.7,592.8,997.8z"/>
			<path d="M1056.7,975.1c0,74.7-38.9,187.2-164.4,209.3c-126,22.2-164.9-76.5-164.9-151.2c0-72.7,38.9-186.7,164.9-208.9
				C1017.9,802.1,1056.7,902.4,1056.7,975.1z M979.5,988.7c0-25.9-10.9-102.7-87.2-89.2c-76.8,13.5-87.7,94.2-87.7,120.1
				c0,25.9,10.9,103.7,87.7,90.1C968.6,1096.2,979.5,1014.6,979.5,988.7z"/>
			<path d="M1213,1114.1c0,5-3.8,9.6-8.5,10.5l-59.2,10.4c-4.7,0.8-8.5-2.5-8.5-7.5V796.9c0-5,3.8-9.6,8.5-10.5l119.4-21.1
				c91.9-16.2,119.9,46.6,119.9,93.9c0,69.7-58.3,126.8-114.2,136.7l-57.3,10.1V1114.1z M1308.7,872.6c0-14.4-7.6-40-41.7-34
				l-54,9.5v83.2l55.4-9.8C1301.1,914.8,1308.7,885.6,1308.7,872.6z"/>
		</g>
		<g>
			<path d="M1822.6,448.7V245.9c0-5,3.8-9.6,8.5-10.5l59.2-10.4c4.7-0.8,8.5,2.5,8.5,7.5v202.7c0,59.3-34.1,146.5-132.7,163.9
				c-98.5,17.4-132.7-57.8-132.7-117.1V279.3c0-5,3.8-9.6,8.5-10.5l58.7-10.4c4.7-0.8,8.5,2.5,8.5,7.5v202.7
				c0,18.4,11.8,64.7,56.9,56.7C1811.2,517.4,1822.6,467.1,1822.6,448.7z"/>
			<path d="M2065.1,533.9c0,5-3.8,9.6-8.5,10.5l-59.2,10.4c-4.7,0.8-8.5-2.5-8.5-7.5V216.6c0-5,3.8-9.6,8.5-10.5l119.4-21.1
				c91.9-16.2,119.9,46.6,119.9,93.9c0,69.7-58.3,126.8-114.2,136.7l-57.3,10.1V533.9z M2160.9,292.4c0-14.4-7.6-40-41.7-34l-54,9.5
				v83.2l55.4-9.8C2153.3,334.6,2160.9,305.3,2160.9,292.4z"/>
		</g>
		<g>
			<path d="M1093,1605.1c0,60.8-50.2,116.9-122.7,129.7c-46,8.1-83.4,2.8-123.7-12.1c-4.3-1.2-5.7-6.5-3.8-11.3l26.1-55.4
				c1.9-4.8,7.1-7.2,11.4-6c30.3,9.1,59.7,15.4,87.2,10.5c24.6-4.4,45.5-20.5,45.5-37.9c0-21.9-25.6-26.9-56.9-31.8
				c-47.9-8-108-16.8-108-88.5c0-65.3,46-112.2,109.4-123.4c20.8-3.7,64.4-8.4,119.9,8.7c4.3,1.7,6.2,6.4,4.3,11.7l-21.3,55.1
				c-1.9,4.8-6.6,7.6-11.4,6.5c-20.8-4.3-60.2-12.3-86.7-7.6c-19.9,3.5-38.4,13.2-37.9,32.1c1.9,21.1,35.1,24.7,72,32.1
				C1042.3,1526.3,1093,1541.3,1093,1605.1z"/>
			<path d="M1220,1412.3l-78.2,13.8c-4.7,0.8-8.5-2.5-8.5-7.5v-56.3c0-5,3.8-9.6,8.5-10.5l233.6-41.2c4.7-0.8,8.5,2.5,8.5,7.5v56.3
				c0,5-3.8,9.6-8.5,10.5l-79.1,14v265.5c0,5-3.8,9.6-8.5,10.5l-59.2,10.4c-4.7,0.8-8.5-2.5-8.5-7.5V1412.3z"/>
			<path d="M1637,1476.3v-202.7c0-5,3.8-9.6,8.5-10.5l59.2-10.4c4.7-0.8,8.5,2.5,8.5,7.5v202.7c0,59.3-34.1,146.5-132.7,163.9
				c-98.5,17.4-132.7-57.8-132.7-117.1v-202.7c0-5,3.8-9.6,8.5-10.5l58.7-10.4c4.7-0.8,8.5,2.5,8.5,7.5v202.7
				c0,18.4,11.8,64.7,56.8,56.7C1625.6,1545,1637,1494.7,1637,1476.3z"/>
			<path d="M1811.8,1582.4c-4.7,0.8-8.5-2.5-8.5-7.5v-330.7c0-5,3.8-9.6,8.5-10.5l110.9-19.5c126-22.2,164.4,72.1,164.4,144.9
				c0,74.7-38.4,181.6-164.4,203.8L1811.8,1582.4z M1922.6,1488.7c76.8-13.5,87.7-90.2,87.7-116.1c0-25.9-10.9-98.2-87.7-84.7
				l-44.1,7.8v200.7L1922.6,1488.7z"/>
			<path d="M2238.7,1498.2c0,5-3.8,9.6-8.5,10.5l-58.8,10.4c-4.7,0.8-8.5-2.5-8.5-7.5v-330.7c0-5,3.8-9.6,8.5-10.5l58.8-10.4
				c4.7-0.8,8.5,2.5,8.5,7.5V1498.2z"/>
			<path d="M2643.8,1260.9c0,74.7-38.9,187.2-164.4,209.3c-126,22.2-164.9-76.5-164.9-151.2c0-72.7,38.9-186.7,164.9-208.9
				C2604.9,1087.9,2643.8,1188.2,2643.8,1260.9z M2566.5,1274.5c0-25.9-10.9-102.7-87.2-89.2c-76.8,13.5-87.7,94.2-87.7,120.1
				c0,25.9,10.9,103.7,87.7,90.1C2555.6,1382,2566.5,1300.4,2566.5,1274.5z"/>
		</g>
		<g>
			<path d="M778.4,2393.4c0,2.1-1.6,4-3.5,4.3l-24.6,4.3c-2,0.3-3.5-1-3.5-3.1v-137.3c0-2.1,1.6-4,3.5-4.4l49.6-8.7
				c38.2-6.7,49.8,19.3,49.8,39c0,28.9-24.2,52.7-47.4,56.7l-23.8,4.2V2393.4z M818.2,2293.1c0-6-3.1-16.6-17.3-14.1l-22.4,4v34.5
				l23-4.1C815,2310.6,818.2,2298.5,818.2,2293.1z"/>
			<path d="M1009.9,2283.7c0,31-16.1,77.7-68.3,86.9c-52.3,9.2-68.4-31.8-68.4-62.8c0-30.2,16.1-77.5,68.4-86.7
				C993.8,2211.9,1009.9,2253.5,1009.9,2283.7z M977.9,2289.4c0-10.7-4.5-42.6-36.2-37c-31.9,5.6-36.4,39.1-36.4,49.8
				c0,10.8,4.5,43,36.4,37.4C973.3,2334,977.9,2300.1,977.9,2289.4z"/>
			<path d="M1118.5,2283l22.6,46.9c0.8,1.3-0.4,3.4-2,3.6l-27.3,4.8c-2.2,0.4-4.1-0.5-5.1-2.4l-20.1-41.7l-14,2.5v44.9
				c0,2.1-1.6,4-3.5,4.3l-24.2,4.3c-2,0.4-3.5-1-3.5-3.1v-137.3c0-2.1,1.6-4,3.5-4.4l49.2-8.7c38.2-6.7,49.8,19.3,49.8,39
				C1143.9,2256.2,1133.2,2272.7,1118.5,2283z M1112.4,2241.2c0-6-3.1-16.6-17.3-14.1l-22.4,4v34.5l23.2-4.1
				C1109.2,2258.7,1112.4,2246.6,1112.4,2241.2z"/>
			<path d="M1196.6,2209.4l-32.5,5.7c-2,0.3-3.5-1-3.5-3.1v-23.4c0-2.1,1.6-4,3.5-4.4l97-17.1c2-0.3,3.5,1,3.5,3.1v23.4
				c0,2.1-1.6,4-3.5,4.3l-32.8,5.8v110.2c0,2.1-1.6,4-3.5,4.4l-24.6,4.3c-2,0.4-3.5-1-3.5-3.1V2209.4z"/>
			<path d="M1386.7,2246.6c0,25.2-20.9,48.5-50.9,53.9c-19.1,3.4-34.6,1.1-51.3-5c-1.8-0.5-2.4-2.7-1.6-4.7l10.8-23
				c0.8-2,2.9-3,4.7-2.5c12.6,3.8,24.8,6.4,36.2,4.4c10.2-1.8,18.9-8.5,18.9-15.7c0-9.1-10.6-11.2-23.6-13.2
				c-19.9-3.3-44.9-7-44.9-36.8c0-27.1,19.1-46.6,45.4-51.2c8.7-1.5,26.7-3.5,49.8,3.6c1.8,0.7,2.6,2.7,1.8,4.9l-8.9,22.9
				c-0.8,2-2.8,3.2-4.7,2.7c-8.7-1.8-25-5.1-36-3.2c-8.3,1.5-15.9,5.5-15.7,13.3c0.8,8.8,14.6,10.2,29.9,13.3
				C1365.7,2213.9,1386.7,2220.2,1386.7,2246.6z"/>
			<path d="M1449.9,2275c0,2.1-1.6,4-3.5,4.4l-24.6,4.3c-2,0.4-3.5-1-3.5-3.1v-137.3c0-2.1,1.6-4,3.5-4.4l24.6-4.3
				c2-0.4,3.5,1,3.5,3.1v54.2l50.9-9v-54.2c0-2.1,1.6-4,3.5-4.4l24.2-4.3c2-0.4,3.5,1,3.5,3.1v137.3c0,2.1-1.6,4-3.5,4.4l-24.2,4.3
				c-2,0.4-3.5-1-3.5-3.1v-52.3l-50.9,9V2275z"/>
			<path d="M1700.2,2162c0,31-16.1,77.7-68.3,86.9c-52.3,9.2-68.4-31.8-68.4-62.8c0-30.2,16.1-77.5,68.4-86.7
				C1684.1,2090.2,1700.2,2131.8,1700.2,2162z M1668.2,2167.6c0-10.7-4.5-42.6-36.2-37c-31.9,5.6-36.4,39.1-36.4,49.8
				c0,10.8,4.5,43,36.4,37.4C1663.7,2212.3,1668.2,2178.4,1668.2,2167.6z"/>
			<path d="M1876.9,2062.2c0.8-2.2,2.8-4,4.9-4.4l28.1-5c1.6-0.3,2.8,1.4,2,3l-60.8,151.1c-0.8,1.8-2.4,3.1-3.9,3.4
				c-1.8,0.3-3.2-0.5-3.9-2l-31.5-69.1l-31.5,80.2c-0.8,1.8-2.4,3.1-3.9,3.4c-1.8,0.3-3.1-0.5-3.9-2l-61-129.7
				c-0.6-1.3,0.6-3.4,2.2-3.7l28.1-5c2.2-0.4,4.1,0.7,4.9,2.6l30.1,69.1l30.7-82.1c0.6-2,2.4-3.5,4.3-3.9c2-0.3,3.5,0.6,4.3,2.3
				l30.7,71.3L1876.9,2062.2z"/>
			<path d="M1970.7,2156.1l46.2-8.1c2-0.4,3.5,1,3.5,3.1v23.4c0,2.1-1.6,4-3.5,4.4l-74.3,13.1c-2,0.4-3.5-1-3.5-3.1v-137.3
				c0-2.1,1.6-4,3.5-4.4l24.6-4.3c2-0.4,3.5,1,3.5,3.1V2156.1z"/>
			<path d="M2083.3,2163.3c0,2.1-1.6,4-3.5,4.4l-24.4,4.3c-2,0.4-3.5-1-3.5-3.1v-137.3c0-2.1,1.6-4,3.5-4.3l24.4-4.3
				c2-0.4,3.5,1,3.5,3.1V2163.3z"/>
			<path d="M2251.5,2064.8c0,31-16.1,77.7-68.3,86.9c-52.3,9.2-68.4-31.8-68.4-62.8c0-30.2,16.1-77.5,68.4-86.7
				C2235.4,1993,2251.5,2034.6,2251.5,2064.8z M2219.4,2070.4c0-10.7-4.5-42.6-36.2-37c-31.9,5.6-36.4,39.1-36.4,49.8
				c0,10.8,4.5,43,36.4,37.4C2214.9,2115.1,2219.4,2081.2,2219.4,2070.4z"/>
			<path d="M2314,2038.7c-1.8-0.7-2.4-2.9-1.4-4.9c3.9-8.3,8.7-19.9,9.4-25.7c-6.5-0.3-11.6-6.2-11.6-14.5c0-9.9,8.1-19.4,17.1-21
				c13.6-2.4,18.1,6.9,18.1,16.5c0,12.6-11,37.5-19.5,50.6c-1.2,1.9-3.5,2.7-5.3,2L2314,2038.7z"/>
			<path d="M2420.4,2103.9c0,2.1-1.6,4-3.5,4.3l-22.8,4c-2,0.4-3.5-1-3.5-3.1v-91l-14.9,10.3c-1.8,1.1-3.9,0.9-4.9-0.6l-8.1-12.8
				c-1-1.5-0.6-4,1-5.6l38.4-36.5c1.8-1.8,3.9-3,6.3-3.4l8.7-1.5c2-0.4,3.5,1,3.5,3.1V2103.9z"/>
			<path d="M2523.9,2019.2c11.6,4.8,15.3,16.9,15.3,26c0,15.1-8.1,44-44.5,50.4c-36.4,6.4-44.5-19.5-44.5-34.6
				c0-9.5,5.7-25.2,14.6-31.7c-9.4-3.3-14.9-13.3-14.9-26.1c0-15.3,8.5-43.5,44.8-49.9c36.4-6.4,45,19.2,44.5,34.1
				C2539,1994.9,2535.7,2009.5,2523.9,2019.2z M2510.1,1992.7c0-9.5-7.5-12.7-15.3-11.3c-7.9,1.4-15.5,7.3-15.5,16.8
				c0,9.7,7.7,13.3,15.5,11.9C2502.6,2008.7,2510.1,2002.4,2510.1,1992.7z M2510.1,2050.6c0-9.7-7.5-13.4-15.3-12
				c-7.9,1.4-15.5,7.7-15.5,17.4c0,9.7,7.7,13.1,15.5,11.7C2502.6,2066.4,2510.1,2059.7,2510.1,2050.6z"/>
		</g>
	</g>
	<polygon class="st4" points="1502.1,742.4 1502.1,1172.3 2354.1,1022.1 2354.1,592.1 	"/>
	<g>
		<defs>
			<polygon id="SVGID_1_" points="1502.1,742.4 1502.1,1172.3 2354.1,1022.1 2354.1,592.1 			"/>
		</defs>
		<clipPath id="SVGID_2_">
			<use xlink:href="#SVGID_1_"  style="overflow:visible;"/>
		</clipPath>
		<g class="st5">
			<path class="st4" d="M2143.3,743.9c-13.9,12.1-33.3,15.5-50.5,8.9L1939.2,694L1815,801.8c-13.9,12.1-33.3,15.5-50.5,8.9
				l-153.6-58.8l-146.8,127.4l14.6,82.6L1602.9,854c13.9-12.1,33.3-15.5,50.5-8.9L1807,904l124.2-107.8
				c13.9-12.1,33.3-15.5,50.5-8.9l153.6,58.8l124.2-107.8c13.9-12.1,33.3-15.5,50.5-8.9l153.6,58.8l-14.6-82.6l-181.5-69.5
				L2143.3,743.9z"/>
			<path class="st4" d="M2178,940.9c-13.9,12.1-33.3,15.5-50.5,8.9l-153.6-58.8l-124.2,107.8c-13.9,12.1-33.3,15.5-50.5,8.9
				l-153.6-58.8l-146.8,127.4l14.6,82.6l124.2-107.8c13.9-12.1,33.3-15.5,50.5-8.9l153.6,58.8l124.2-107.8
				c13.9-12.1,33.3-15.5,50.5-8.9L2170,1043l124.2-107.8c13.9-12.1,33.3-15.5,50.5-8.9l153.6,58.8l-14.6-82.6l-181.5-69.5
				L2178,940.9z"/>
			<path class="st4" d="M2212.7,1137.8c-13.9,12.1-33.3,15.5-50.5,8.9l-153.6-58.8l-124.2,107.8c-13.9,12.1-33.3,15.5-50.5,8.9
				l-153.6-58.8l-146.8,127.4l14.6,82.6l124.2-107.8c13.9-12.1,33.3-15.5,50.5-8.9l153.6,58.8l124.2-107.8
				c13.9-12.1,33.3-15.5,50.5-8.9l153.6,58.8l124.2-107.8c13.9-12.1,33.3-15.5,50.5-8.9l153.6,58.8l-14.6-82.6l-181.5-69.5
				L2212.7,1137.8z"/>
			<path class="st4" d="M2108.5,547c-13.9,12.1-33.3,15.5-50.5,8.9L1904.5,497l-124.2,107.8c-13.9,12.1-33.3,15.5-50.5,8.9
				l-153.6-58.8l-146.8,127.4l14.6,82.6l124.2-107.8c13.9-12.1,33.3-15.5,50.5-8.9l153.6,58.8l124.2-107.8
				c13.9-12.1,33.3-15.5,50.5-8.9l153.6,58.8l124.2-107.8c13.9-12.1,33.3-15.5,50.5-8.9l153.6,58.8l-14.6-82.6l-181.5-69.5
				L2108.5,547z"/>
			<path class="st4" d="M2073.8,350c-13.9,12.1-33.3,15.5-50.5,8.9l-153.6-58.8l-124.2,107.8c-13.9,12.1-33.3,15.5-50.5,8.9
				l-153.6-58.8l-146.8,127.4l14.6,82.6l124.2-107.8c13.9-12.1,33.3-15.5,50.5-8.9l153.6,58.8l124.2-107.8
				c13.9-12.1,33.3-15.5,50.5-8.9l153.6,58.8L2190,344.3c13.9-12.1,33.3-15.5,50.5-8.9l153.6,58.8l-14.6-82.6L2198,242.2L2073.8,350
				z"/>
			<path d="M2190,344.3l-124.2,107.8l-153.6-58.8c-17.2-6.6-36.6-3.2-50.5,8.9L1737.5,510l-153.6-58.8c-17.2-6.6-36.6-3.2-50.5,8.9
				l-124.2,107.8l20.2,114.4l146.8-127.4l153.6,58.8c17.2,6.6,36.6,3.2,50.5-8.9L1904.5,497l153.6,58.8c17.2,6.6,36.6,3.2,50.5-8.9
				l124.2-107.8l181.5,69.5l-20.2-114.4l-153.6-58.8C2223.3,328.9,2203.9,332.3,2190,344.3z"/>
			<path d="M1541.5,357.9l153.6,58.8c17.2,6.6,36.6,3.2,50.5-8.9l124.2-107.8l153.6,58.8c17.2,6.6,36.6,3.2,50.5-8.9L2198,242.2
				l181.5,69.5l-18.8-106.4l-984.8,173.6l18.8,106.4L1541.5,357.9z"/>
			<path d="M2224.7,541.3l-124.2,107.8l-153.6-58.8c-17.2-6.6-36.6-3.2-50.5,8.9L1772.3,707l-153.6-58.8
				c-17.2-6.6-36.6-3.2-50.5,8.9L1444,764.9l20.2,114.4l146.8-127.4l153.6,58.8c17.2,6.6,36.6,3.2,50.5-8.9L1939.2,694l153.6,58.8
				c17.2,6.6,36.6,3.2,50.5-8.9l124.2-107.8l181.5,69.5l-20.2-114.4l-153.6-58.8C2258,525.8,2238.6,529.2,2224.7,541.3z"/>
			<path d="M2259.5,738.3l-124.2,107.8l-153.6-58.8c-17.2-6.6-36.6-3.2-50.5,8.9L1807,904l-153.6-58.8c-17.2-6.6-36.6-3.2-50.5,8.9
				l-124.2,107.8l20.2,114.4l146.8-127.4l153.6,58.8c17.2,6.6,36.6,3.2,50.5-8.9l124.2-107.8l153.6,58.8c17.2,6.6,36.6,3.2,50.5-8.9
				l124.2-107.8l181.5,69.5l-20.2-114.4l-153.6-58.8C2292.8,722.8,2273.4,726.2,2259.5,738.3z"/>
			<path d="M2294.2,935.2L2170,1043l-153.6-58.8c-17.2-6.6-36.6-3.2-50.5,8.9l-124.2,107.8l-153.6-58.8c-17.2-6.6-36.6-3.2-50.5,8.9
				l-124.2,107.8l20.2,114.4l146.8-127.4l153.6,58.8c17.2,6.6,36.6,3.2,50.5-8.9l124.2-107.8l153.6,58.8c17.2,6.6,36.6,3.2,50.5-8.9
				l124.2-107.8l181.5,69.5l-20.2-114.4l-153.6-58.8C2327.5,919.7,2308.1,923.2,2294.2,935.2z"/>
			<path d="M2328.9,1132.2L2204.7,1240l-153.6-58.8c-17.2-6.6-36.6-3.2-50.5,8.9l-124.2,107.8l-153.6-58.8
				c-17.2-6.6-36.6-3.2-50.5,8.9l-124.2,107.8l1.4,8l984.8-173.6l-1.4-8l-153.6-58.8C2362.2,1116.7,2342.8,1120.1,2328.9,1132.2z"/>
		</g>
	</g>
</g>
</svg>
