<?xml version="1.0" encoding="utf-8"?>
<!-- Generator: Adobe Illustrator 22.0.1, SVG Export Plug-In . SVG Version: 6.00 Build 0)  -->
<svg version="1.1" id="Layer_1" xmlns="http://www.w3.org/2000/svg" xmlns:xlink="http://www.w3.org/1999/xlink" x="0px" y="0px"
	 viewBox="0 0 692.6 773.1" style="enable-background:new 0 0 692.6 773.1;" xml:space="preserve">
<style type="text/css">
	.st0{fill:#FFFFFF;}
	.st1{fill:#231F20;}
</style>
<g>
	<g>
		<path class="st0" d="M263.3,230.2c0,53.8-46.8,95.7-114.2,95.7c-42.8,0-77.6-10.6-115.1-30c-4-1.8-5.3-6.6-3.5-10.6l24.3-45
			c1.8-4,6.6-5.3,10.6-3.5c28.2,12.8,55.6,22.9,81.2,22.9c22.9,0,42.3-11,42.3-26.5c0-19.4-23.8-27.8-52.9-37
			C91.3,181.7,35.3,164.5,35.3,101c0-57.8,42.8-92.2,101.9-92.2c19.4,0,60,2.7,111.6,26.5c4,2.2,5.7,6.6,4,11l-19.8,45.4
			c-1.8,4-6.2,5.7-10.6,4c-19.4-7.1-56-20.3-80.7-20.3c-18.5,0-35.7,5.7-35.3,22.5c1.8,19,32.6,27.3,67,39.7
			C216.1,152.6,263.3,173.8,263.3,230.2z"/>
		<path class="st1" d="M149.1,334.8c-41.5,0-77.1-9.2-119-30.9c-8-3.8-11.5-13.6-7.7-22.1l0.3-0.6l24.1-44.8c1.9-4,5.4-7,9.7-8.4
			c4-1.3,8.4-1,12.3,0.7c24.2,11,52.3,22.2,77.6,22.2c18.2,0,33.5-8.1,33.5-17.6c0-12.8-19.4-19.9-46.8-28.6l-2.3-0.8
			C86.8,189.5,26.5,169.9,26.5,101C26.5,40.6,71,0,137.2,0c36.8,0,76.6,9.4,115.3,27.3l0.6,0.3c7.9,4.4,11.2,13.6,7.9,22l-0.1,0.3
			L241,95.3c-3.7,8.4-13.1,12.1-21.8,8.7c-17.7-6.4-54.3-19.7-77.6-19.7c-11.3,0-20,2.3-24,6.4c-1.7,1.8-2.5,3.9-2.5,6.7
			c1.4,11,24.7,19.1,49.3,27.7c3.9,1.4,7.9,2.8,11.9,4.2c22.3,7.8,45.4,17.1,63.7,32.3c21.3,17.7,32.1,40.8,32.1,68.6
			c0,29-12.4,55.5-34.9,74.7C214.8,324.2,183.5,334.8,149.1,334.8z M38.8,288.5c38.9,20.1,72,28.6,110.3,28.6
			c61.1,0,105.4-36.5,105.4-86.9c0-22.7-8.4-40.7-25.8-55.1c-16.1-13.4-37.6-21.9-58.3-29.2c-4-1.5-8-2.8-11.8-4.2
			c-31.6-11.1-59-20.6-61.1-43l0-0.6c-0.2-7.7,2.4-14.6,7.5-19.8c9.4-9.7,25.1-11.7,36.6-11.7c26.4,0,63.5,13.5,83.6,20.8L244.5,43
			c-36.2-16.6-73.3-25.4-107.4-25.4c-56.5,0-93.1,32.7-93.1,83.4c0,25.1,9.2,43.6,29,58.2c17.9,13.2,42,21,63.2,28l2.3,0.7
			c27.6,8.8,59,18.8,59,45.4c0,20.1-22,35.3-51.2,35.3c-28.4,0-58.5-11.8-84.3-23.5L38.8,288.5z M225.8,87.6
			C225.8,87.6,225.8,87.6,225.8,87.6L225.8,87.6z"/>
	</g>
	<g>
		<path class="st0" d="M614,111.2c-3.1,2.6-7.9,2.6-11-0.4c-18.5-19-48.1-34.8-71.5-34.8c-71.5,0-81.6,68.8-81.6,91.7
			s10.1,91.3,82,91.3c24.7,0,53.8-14.1,74.5-31.3c3.5-2.7,8.4-2.7,11,0.9l30.4,36.2c3.1,3.5,2.7,8.8-0.4,11.9
			c-32.2,30.4-69.2,49.8-116,49.8c-117.3,0-153.5-92.6-153.5-158.8c0-64.4,36.2-158.4,153.5-158.4c50.3,0,86.9,21.6,118.7,56
			c3.1,3.1,2.6,8.4-0.4,11.5L614,111.2z"/>
		<path class="st1" d="M531.5,335.2c-54.9,0-99.1-20.1-127.8-58.1c-21.9-29.1-34.5-69-34.5-109.5c0-39.8,12.6-79.4,34.5-108.6
			c28.8-38.3,73-58.5,127.8-58.5c48.3,0,88,18.7,125,58.8c6.3,6.5,6.1,17.1-0.6,23.8l-0.1,0.1l-36.1,34.8c-6.7,5.7-16.8,5.3-23-0.9
			l-0.1-0.1c-18.2-18.6-45.6-32.2-65.1-32.2c-27.3,0-47.5,11-59.9,32.8c-12.2,21.4-12.8,45.5-12.8,50.1c0,8.4,2.1,82.5,73.2,82.5
			c20.4,0,47.5-11.5,68.9-29.3l0.3-0.3c3.8-2.9,8.6-4.1,13-3.5c4.1,0.6,7.7,2.7,10.2,5.9l30.3,36c6,6.9,5.6,17.4-0.9,23.9l-0.2,0.2
			C616.4,318.1,576.5,335.2,531.5,335.2z M531.5,18.1c-49.7,0-88,17.3-113.7,51.5c-19.7,26.2-31,61.9-31,98
			c0,36.8,11.3,72.8,31,98.9c25.6,33.9,63.8,51.1,113.7,51.1c40.7,0,75.6-15,109.7-47.2l0,0l-29.8-35.4
			c-29.4,24.2-60.3,32.8-79.5,32.8c-33.8,0-60-14.3-75.6-41.5c-14.1-24.5-15.2-51.1-15.2-58.7c0-7.6,1.1-34.2,15.2-58.8
			c15.6-27.3,41.6-41.7,75.2-41.7c24,0,55.7,15.2,77.2,36.9l34.5-33.2C609.9,34.8,574.4,18.1,531.5,18.1z"/>
	</g>
	<g>
		<path class="st0" d="M244.8,549c-3.1,2.6-7.9,2.6-11-0.4c-18.5-19-48.1-34.8-71.5-34.8c-71.5,0-81.6,68.8-81.6,91.7
			c0,22.9,10.1,91.3,82,91.3c24.7,0,53.8-14.1,74.5-31.3c3.5-2.7,8.4-2.7,11,0.9l30.4,36.2c3.1,3.5,2.6,8.8-0.4,11.9
			c-32.2,30.4-69.2,49.8-116,49.8C45,764.3,8.8,671.6,8.8,605.5c0-64.4,36.2-158.4,153.5-158.4c50.3,0,86.9,21.6,118.7,56
			c3.1,3.1,2.6,8.4-0.4,11.5L244.8,549z"/>
		<path class="st1" d="M162.3,773.1c-54.9,0-99.1-20.1-127.8-58.1C12.6,685.9,0,646,0,605.5c0-39.8,12.6-79.4,34.5-108.6
			c28.8-38.3,73-58.5,127.8-58.5c48.3,0,88,18.7,125,58.8c6.3,6.5,6.1,17.1-0.6,23.8l-0.1,0.1l-36.1,34.8c-6.7,5.7-16.8,5.3-23-0.9
			l-0.1-0.1c-18.2-18.6-45.6-32.2-65.1-32.2c-27.3,0-47.5,11-59.9,32.8c-12.2,21.4-12.8,45.5-12.8,50.1c0,8.4,2.1,82.5,73.2,82.5
			c20.4,0,47.5-11.5,68.9-29.3l0.3-0.3c3.8-2.9,8.6-4.1,13-3.5c4.1,0.6,7.7,2.7,10.2,5.9l30.3,36c6,6.9,5.6,17.4-0.9,23.9l-0.2,0.2
			C247.2,756,207.3,773.1,162.3,773.1z M162.3,455.9c-49.7,0-88,17.3-113.7,51.5c-19.7,26.2-31,61.9-31,98c0,36.8,11.3,72.8,31,98.9
			c25.6,33.9,63.8,51.1,113.7,51.1c40.7,0,75.6-15,109.7-47.2l0,0l-29.8-35.4c-19.5,16-50.4,32.8-79.5,32.8
			c-33.8,0-60-14.3-75.6-41.5c-14.1-24.5-15.2-51.1-15.2-58.7c0-7.6,1.1-34.2,15.2-58.8c15.6-27.3,41.6-41.7,75.2-41.7
			c24,0,55.7,15.2,77.2,36.9l34.5-33.2C240.7,472.7,205.2,455.9,162.3,455.9z"/>
	</g>
	<g>
		<path class="st0" d="M683.3,753.2c1.8,3.1-0.9,7.1-4.4,7.1h-63.1c-4.9,0-9.3-3.1-11-7.5l-22.1-55.1h-90.9l-22.1,55.1
			c-1.8,4.4-6.2,7.5-11,7.5h-63.1c-3.5,0-6.2-4-4.9-7.1l135.4-298.2c1.8-4.4,6.2-7.1,10.6-7.1c4.4,0,8.8,2.7,10.6,7.1L683.3,753.2z
			 M513.9,642.5h46.3l-22.9-57.3L513.9,642.5z"/>
		<path class="st1" d="M678.8,769.1h-63.1c-8.4,0-16.1-5.2-19.2-13l-19.8-49.6h-78.9L478,756.1c-3.1,7.8-10.8,13-19.2,13h-63.1
			c-4.7,0-9-2.4-11.7-6.4c-2.6-3.9-3.1-8.8-1.3-12.9l0.1-0.2l135.3-298c3.1-7.4,10.6-12.4,18.7-12.4c8.1,0,15.6,5,18.7,12.4
			l135.7,297.7c2.1,4,2,8.8-0.4,12.8C688.3,766.4,683.7,769.1,678.8,769.1z M485.9,688.8h102.8l24.3,60.7c0.5,1.1,1.6,2,2.8,2h57
			L539.3,458.5l-0.1-0.2c-0.4-1-1.5-1.5-2.4-1.5c-0.9,0-2,0.5-2.4,1.5l-0.2,0.4l-133,292.8h57.4c1.2,0,2.4-0.8,2.8-2L485.9,688.8z
			 M573.2,651.3h-72.5l36.6-89.7L573.2,651.3z M527,633.7h20.2l-10-25L527,633.7z"/>
	</g>
</g>
</svg>
